<?xml version="1.0" encoding="utf-8"?>
<!-- Generator: Adobe Illustrator 25.0.1, SVG Export Plug-In . SVG Version: 6.00 Build 0)  -->
<!DOCTYPE svg PUBLIC "-//W3C//DTD SVG 1.1//EN" "http://www.w3.org/Graphics/SVG/1.1/DTD/svg11.dtd" [
	<!ENTITY ns_extend "http://ns.adobe.com/Extensibility/1.0/">
	<!ENTITY ns_ai "http://ns.adobe.com/AdobeIllustrator/10.0/">
	<!ENTITY ns_graphs "http://ns.adobe.com/Graphs/1.0/">
	<!ENTITY ns_vars "http://ns.adobe.com/Variables/1.0/">
	<!ENTITY ns_imrep "http://ns.adobe.com/ImageReplacement/1.0/">
	<!ENTITY ns_sfw "http://ns.adobe.com/SaveForWeb/1.0/">
	<!ENTITY ns_custom "http://ns.adobe.com/GenericCustomNamespace/1.0/">
	<!ENTITY ns_adobe_xpath "http://ns.adobe.com/XPath/1.0/">
]>
<svg version="1.1" id="Layer_1" xmlns:x="&ns_extend;" xmlns:i="&ns_ai;" xmlns:graph="&ns_graphs;"
	 xmlns="http://www.w3.org/2000/svg" xmlns:xlink="http://www.w3.org/1999/xlink" x="0px" y="0px" viewBox="0 0 66.9 56.9"
	 style="enable-background:new 0 0 66.9 56.9;" xml:space="preserve">
<style type="text/css">
	.st0{fill:#231F20;}
</style>
<metadata>
	<sfw  xmlns="&ns_sfw;">
		<slices></slices>
		<sliceSourceBounds  bottomLeftOrigin="true" height="55" width="16383" x="-8141" y="-56"></sliceSourceBounds>
	</sfw>
</metadata>
<g>
	<g>
		<g>
			<g>
				<g>
					<path class="st0" d="M65,22.8h-9.9l-3.7-9.6c-0.2-0.6-0.9-1.1-1.5-1.1h-26c-0.6,0-1.1,0.3-1.4,0.8l-5.9,9.8H4
						c-0.8,0-1.5,0.6-1.6,1.4L0.3,38c-0.1,0.5,0.1,1,0.4,1.3c0.3,0.4,0.8,0.6,1.3,0.6H8c1.4,3,4.4,4.9,7.7,4.9c3.3,0,6.3-2,7.7-4.9
						h21.2c1.4,3,4.4,4.9,7.7,4.9c3.3,0,6.3-2,7.7-4.9H65c0.9,0,1.6-0.7,1.6-1.6V24.4C66.6,23.5,65.9,22.8,65,22.8L65,22.8z
						 M63.3,36.6H59c-0.7,0-1.4,0.5-1.6,1.2c-0.6,2.2-2.7,3.8-5,3.8c-2.3,0-4.4-1.5-5-3.8c-0.2-0.7-0.8-1.2-1.6-1.2H22.3
						c-0.7,0-1.4,0.5-1.6,1.2c-0.6,2.2-2.7,3.8-5,3.8c-2.3,0-4.4-1.5-5-3.8c-0.2-0.7-0.9-1.2-1.6-1.2H3.8l1.6-10.5h12.2
						c0.6,0,1.1-0.3,1.4-0.8l5.9-9.8h23.9l3.7,9.6c0.2,0.6,0.9,1.1,1.5,1.1h9.4V36.6z M63.3,36.6"/>
				</g>
				<path class="st0" d="M46.5,28.5l-6.3-2.3c-0.5-0.2-1.1-0.1-1.5,0.2c-0.4,0.3-0.7,0.8-0.7,1.4v0.7h-7.9v-4.8h11.3
					c0.9,0,1.6-0.7,1.6-1.6c0-0.9-0.7-1.6-1.6-1.6h-13c-0.9,0-1.6,0.7-1.6,1.6v8.1c0,0.9,0.7,1.6,1.6,1.6H38v0.7
					c0,0.5,0.3,1,0.7,1.4c0.3,0.2,0.6,0.3,0.9,0.3c0.2,0,0.4,0,0.6-0.1l6.3-2.3c0.6-0.2,1.1-0.9,1.1-1.5
					C47.6,29.4,47.1,28.8,46.5,28.5L46.5,28.5z M46.5,28.5"/>
			</g>
		</g>
	</g>
</g>
</svg>
