<?xml version="1.0" encoding="utf-8"?>
<!-- Generator: Adobe Illustrator 25.0.1, SVG Export Plug-In . SVG Version: 6.00 Build 0)  -->
<!DOCTYPE svg PUBLIC "-//W3C//DTD SVG 1.1//EN" "http://www.w3.org/Graphics/SVG/1.1/DTD/svg11.dtd" [
	<!ENTITY ns_extend "http://ns.adobe.com/Extensibility/1.0/">
	<!ENTITY ns_ai "http://ns.adobe.com/AdobeIllustrator/10.0/">
	<!ENTITY ns_graphs "http://ns.adobe.com/Graphs/1.0/">
	<!ENTITY ns_vars "http://ns.adobe.com/Variables/1.0/">
	<!ENTITY ns_imrep "http://ns.adobe.com/ImageReplacement/1.0/">
	<!ENTITY ns_sfw "http://ns.adobe.com/SaveForWeb/1.0/">
	<!ENTITY ns_custom "http://ns.adobe.com/GenericCustomNamespace/1.0/">
	<!ENTITY ns_adobe_xpath "http://ns.adobe.com/XPath/1.0/">
]>
<svg version="1.1" id="Layer_1" xmlns:x="&ns_extend;" xmlns:i="&ns_ai;" xmlns:graph="&ns_graphs;"
	 xmlns="http://www.w3.org/2000/svg" xmlns:xlink="http://www.w3.org/1999/xlink" x="0px" y="0px" viewBox="0 0 56.9 56.9"
	 style="enable-background:new 0 0 56.9 56.9;" xml:space="preserve">
<style type="text/css">
	.st0{fill:#231F20;}
</style>
<metadata>
	<sfw  xmlns="&ns_sfw;">
		<slices></slices>
		<sliceSourceBounds  bottomLeftOrigin="true" height="55" width="16383" x="-8141" y="-56"></sliceSourceBounds>
	</sfw>
</metadata>
<g>
	<path class="st0" d="M2.6,18.5V52H55V18.5H2.6z M18.3,32.1h-3.9V36h-2.8v-3.8H7.8v-2.8h3.9v-3.8h2.8v3.8h3.9V32.1z M25.1,39.2
		l3.6-7h-3.6l7.4-8.6l-2.8,6.5l3.4-0.1L25.1,39.2z M49.8,32.1H39.3v-2.8h10.5V32.1z"/>
	<rect x="-0.1" y="12.4" class="st0" width="57.1" height="4"/>
	<path class="st0" d="M13.1,7.6V11H7V7.6c0-1.7,1.4-3,3-3c0.8,0,1.6,0.3,2.2,0.9C12.7,6,13.1,6.7,13.1,7.6z"/>
	<path class="st0" d="M49.8,7.6V11h-6.1V7.6c0-1.7,1.4-3,3-3c0.8,0,1.6,0.3,2.2,0.9C49.5,6,49.8,6.7,49.8,7.6z"/>
</g>
</svg>
