<?xml version="1.0" encoding="utf-8"?>
<!-- Generator: Adobe Illustrator 25.0.1, SVG Export Plug-In . SVG Version: 6.00 Build 0)  -->
<!DOCTYPE svg PUBLIC "-//W3C//DTD SVG 1.1//EN" "http://www.w3.org/Graphics/SVG/1.1/DTD/svg11.dtd" [
	<!ENTITY ns_extend "http://ns.adobe.com/Extensibility/1.0/">
	<!ENTITY ns_ai "http://ns.adobe.com/AdobeIllustrator/10.0/">
	<!ENTITY ns_graphs "http://ns.adobe.com/Graphs/1.0/">
	<!ENTITY ns_vars "http://ns.adobe.com/Variables/1.0/">
	<!ENTITY ns_imrep "http://ns.adobe.com/ImageReplacement/1.0/">
	<!ENTITY ns_sfw "http://ns.adobe.com/SaveForWeb/1.0/">
	<!ENTITY ns_custom "http://ns.adobe.com/GenericCustomNamespace/1.0/">
	<!ENTITY ns_adobe_xpath "http://ns.adobe.com/XPath/1.0/">
]>
<svg version="1.1" id="Layer_1" xmlns:x="&ns_extend;" xmlns:i="&ns_ai;" xmlns:graph="&ns_graphs;"
	 xmlns="http://www.w3.org/2000/svg" xmlns:xlink="http://www.w3.org/1999/xlink" x="0px" y="0px" viewBox="0 0 56.9 56.9"
	 style="enable-background:new 0 0 56.9 56.9;" xml:space="preserve">
<style type="text/css">
	.st0{fill:#231F20;}
</style>
<metadata>
	<sfw  xmlns="&ns_sfw;">
		<slices></slices>
		<sliceSourceBounds  bottomLeftOrigin="true" height="55" width="16383" x="-8141" y="-56"></sliceSourceBounds>
	</sfw>
</metadata>
<g>
	<path class="st0" d="M42.6,29.8c0.7-5.8-1.8-10.8-5.8-14l6.4-6.4c-4.5-4-10.4-6.4-16.9-6.4C12.2,3.1,0.8,14.4,0.8,28.5
		c0,14,11.4,25.4,25.5,25.4c13.6,0,24.7-10.7,25.4-24H42.6z M26.3,43.4c-8.3,0-14.9-6.7-14.9-14.9c0-8.2,6.7-14.9,14.9-14.9
		c8.3,0,15,6.7,15,14.9C41.2,36.7,34.5,43.4,26.3,43.4z"/>
	<path class="st0" d="M26.3,14.5c-7.7,0-14,6.3-14,14c0,7.7,6.3,14,14,14c7.7,0,14-6.3,14-14C40.3,20.7,34,14.5,26.3,14.5z
		 M26.2,17.2c1.1,0,1.9,0.9,1.9,1.9c0,1.1-0.9,1.9-1.9,1.9c-1.1,0-1.9-0.9-1.9-1.9C24.3,18.1,25.2,17.2,26.2,17.2z M17.4,27.6
		c-1.1,0-1.9-0.9-1.9-1.9c0-1.1,0.9-1.9,1.9-1.9c1.1,0,1.9,0.9,1.9,1.9C19.3,26.7,18.4,27.6,17.4,27.6z M20.7,38.1
		c-1.1,0-1.9-0.9-1.9-1.9c0-1.1,0.9-1.9,1.9-1.9c1.1,0,1.9,0.9,1.9,1.9C22.7,37.2,21.8,38.1,20.7,38.1z M20.4,28.5
		c0-3.3,2.6-5.9,5.9-5.9c3.3,0,5.9,2.6,5.9,5.9c0,3.2-2.6,5.9-5.9,5.9C23,34.3,20.4,31.7,20.4,28.5z M31.8,38.1
		c-1.1,0-1.9-0.9-1.9-1.9c0-1.1,0.9-1.9,1.9-1.9c1.1,0,1.9,0.9,1.9,1.9C33.7,37.2,32.9,38.1,31.8,38.1z M35.2,27.6
		c-1.1,0-1.9-0.9-1.9-1.9c0-1.1,0.9-1.9,1.9-1.9c1.1,0,1.9,0.9,1.9,1.9C37.1,26.7,36.2,27.6,35.2,27.6z"/>
	<path class="st0" d="M43.6,28.9c0.3-5-1.7-9.7-5.5-13.2L47,6.9c5.7,6,8.9,13.8,9.1,22H43.6z"/>
</g>
</svg>
