<?xml version="1.0" encoding="utf-8"?>
<!-- Generator: Adobe Illustrator 25.0.1, SVG Export Plug-In . SVG Version: 6.00 Build 0)  -->
<!DOCTYPE svg PUBLIC "-//W3C//DTD SVG 1.1//EN" "http://www.w3.org/Graphics/SVG/1.1/DTD/svg11.dtd" [
	<!ENTITY ns_extend "http://ns.adobe.com/Extensibility/1.0/">
	<!ENTITY ns_ai "http://ns.adobe.com/AdobeIllustrator/10.0/">
	<!ENTITY ns_graphs "http://ns.adobe.com/Graphs/1.0/">
	<!ENTITY ns_vars "http://ns.adobe.com/Variables/1.0/">
	<!ENTITY ns_imrep "http://ns.adobe.com/ImageReplacement/1.0/">
	<!ENTITY ns_sfw "http://ns.adobe.com/SaveForWeb/1.0/">
	<!ENTITY ns_custom "http://ns.adobe.com/GenericCustomNamespace/1.0/">
	<!ENTITY ns_adobe_xpath "http://ns.adobe.com/XPath/1.0/">
]>
<svg version="1.1" id="Layer_1" xmlns:x="&ns_extend;" xmlns:i="&ns_ai;" xmlns:graph="&ns_graphs;"
	 xmlns="http://www.w3.org/2000/svg" xmlns:xlink="http://www.w3.org/1999/xlink" x="0px" y="0px" viewBox="0 0 49.4 49.4"
	 style="enable-background:new 0 0 49.4 49.4;" xml:space="preserve">
<style type="text/css">
	.st0{fill-rule:evenodd;clip-rule:evenodd;fill:#F8981D;}
	.st1{fill-rule:evenodd;clip-rule:evenodd;fill:#FFFFFF;}
</style>
<metadata>
	<sfw  xmlns="&ns_sfw;">
		<slices></slices>
		<sliceSourceBounds  bottomLeftOrigin="true" height="47.9" width="38.1" x="5.6" y="-48.6"></sliceSourceBounds>
	</sfw>
</metadata>
<g>
	<path class="st0" d="M24.7,0.8C14.2,0.8,5.6,9.3,5.6,19.8c0,10.1,11.8,22.3,19.5,28.8c7.5-6.1,18.7-19.1,18.7-28.8
		C43.8,9.3,35.3,0.8,24.7,0.8z M24.7,26.3c-3.7,0-6.5-2.8-6.5-6.5c0-3.7,2.8-6.5,6.5-6.5c3.6,0,6.5,2.8,6.5,6.5
		C31.2,23.5,28.4,26.3,24.7,26.3z"/>
	<path class="st1" d="M31.2,19.8c0,3.6-2.8,6.5-6.5,6.5c-3.7,0-6.5-2.8-6.5-6.5c0-3.7,2.8-6.5,6.5-6.5
		C28.4,13.4,31.2,16.2,31.2,19.8z"/>
</g>
</svg>
