<?xml version="1.0" encoding="utf-8"?>
<!-- Generator: Adobe Illustrator 25.0.1, SVG Export Plug-In . SVG Version: 6.00 Build 0)  -->
<!DOCTYPE svg PUBLIC "-//W3C//DTD SVG 1.1//EN" "http://www.w3.org/Graphics/SVG/1.1/DTD/svg11.dtd" [
	<!ENTITY ns_extend "http://ns.adobe.com/Extensibility/1.0/">
	<!ENTITY ns_ai "http://ns.adobe.com/AdobeIllustrator/10.0/">
	<!ENTITY ns_graphs "http://ns.adobe.com/Graphs/1.0/">
	<!ENTITY ns_vars "http://ns.adobe.com/Variables/1.0/">
	<!ENTITY ns_imrep "http://ns.adobe.com/ImageReplacement/1.0/">
	<!ENTITY ns_sfw "http://ns.adobe.com/SaveForWeb/1.0/">
	<!ENTITY ns_custom "http://ns.adobe.com/GenericCustomNamespace/1.0/">
	<!ENTITY ns_adobe_xpath "http://ns.adobe.com/XPath/1.0/">
]>
<svg version="1.1" id="Layer_1" xmlns:x="&ns_extend;" xmlns:i="&ns_ai;" xmlns:graph="&ns_graphs;"
	 xmlns="http://www.w3.org/2000/svg" xmlns:xlink="http://www.w3.org/1999/xlink" x="0px" y="0px" viewBox="0 0 49.4 49.4"
	 style="enable-background:new 0 0 49.4 49.4;" xml:space="preserve">
<style type="text/css">
	.st0{fill:#F8981D;}
	.st1{enable-background:new    ;}
	.st2{fill:#FFFFFF;}
</style>
<metadata>
	<sfw  xmlns="&ns_sfw;">
		<slices></slices>
		<sliceSourceBounds  bottomLeftOrigin="true" height="47.4" width="47.4" x="1.4" y="1.4"></sliceSourceBounds>
	</sfw>
</metadata>
<circle class="st0" cx="25.1" cy="24.3" r="23.7"/>
<g>
	<g class="st1">
		<path class="st2" d="M12.7,28.8v-8.6h2.1v3.3h3.6v-3.3h2.1v8.6h-2.1v-3.3h-3.6v3.3H12.7z"/>
		<path class="st2" d="M21.4,24.5c0-2.9,1.7-4.5,4.4-4.5c2.7,0,4.4,1.6,4.4,4.5c0,2.9-1.7,4.4-4.4,4.4
			C23.1,28.9,21.4,27.3,21.4,24.5z M28,24.5c0-1.6-0.9-2.5-2.2-2.5c-1.4,0-2.2,0.9-2.2,2.5c0,1.6,0.9,2.5,2.2,2.5
			C27.2,27,28,26.1,28,24.5z"/>
		<path class="st2" d="M33,28.8v-6.7h-2.6v-1.9h7.4v1.9h-2.6v6.7H33z"/>
	</g>
</g>
</svg>
