<?xml version="1.0" encoding="utf-8"?>
<!-- Generator: Adobe Illustrator 25.0.1, SVG Export Plug-In . SVG Version: 6.00 Build 0)  -->
<!DOCTYPE svg PUBLIC "-//W3C//DTD SVG 1.1//EN" "http://www.w3.org/Graphics/SVG/1.1/DTD/svg11.dtd" [
	<!ENTITY ns_extend "http://ns.adobe.com/Extensibility/1.0/">
	<!ENTITY ns_ai "http://ns.adobe.com/AdobeIllustrator/10.0/">
	<!ENTITY ns_graphs "http://ns.adobe.com/Graphs/1.0/">
	<!ENTITY ns_vars "http://ns.adobe.com/Variables/1.0/">
	<!ENTITY ns_imrep "http://ns.adobe.com/ImageReplacement/1.0/">
	<!ENTITY ns_sfw "http://ns.adobe.com/SaveForWeb/1.0/">
	<!ENTITY ns_custom "http://ns.adobe.com/GenericCustomNamespace/1.0/">
	<!ENTITY ns_adobe_xpath "http://ns.adobe.com/XPath/1.0/">
]>
<svg version="1.1" id="Layer_1" xmlns:x="&ns_extend;" xmlns:i="&ns_ai;" xmlns:graph="&ns_graphs;"
	 xmlns="http://www.w3.org/2000/svg" xmlns:xlink="http://www.w3.org/1999/xlink" x="0px" y="0px" viewBox="0 0 49.4 49.4"
	 style="enable-background:new 0 0 49.4 49.4;" xml:space="preserve">
<style type="text/css">
	.st0{fill:#00B900;}
	.st1{fill:#FFFFFF;}
</style>
<metadata>
	<sfw  xmlns="&ns_sfw;">
		<slices></slices>
		<sliceSourceBounds  bottomLeftOrigin="true" height="47.8" width="47.8" x="0.9" y="-48.6"></sliceSourceBounds>
	</sfw>
</metadata>
<g>
	<circle class="st0" cx="24.8" cy="24.8" r="23.9"/>
	<g id="TYPE_A_2_">
		<g>
			<path class="st1" d="M40.7,23.3c0-7.1-7.1-12.9-15.9-12.9c-8.8,0-15.9,5.8-15.9,12.9c0,6.4,5.7,11.7,13.3,12.7
				c0.5,0.1,1.2,0.3,1.4,0.8c0.2,0.4,0.1,1,0.1,1.4c0,0-0.2,1.1-0.2,1.4c-0.1,0.4-0.3,1.6,1.4,0.9c1.7-0.7,9.1-5.4,12.5-9.2h0
				C39.6,28.7,40.7,26.2,40.7,23.3"/>
			<g>
				<path class="st0" d="M21.6,19.9h-1.1c-0.2,0-0.3,0.1-0.3,0.3v6.9c0,0.2,0.1,0.3,0.3,0.3h1.1c0.2,0,0.3-0.1,0.3-0.3v-6.9
					C21.9,20,21.7,19.9,21.6,19.9"/>
				<path class="st0" d="M29.2,19.9h-1.1c-0.2,0-0.3,0.1-0.3,0.3v4.1L24.6,20c0,0,0,0,0,0c0,0,0,0,0,0c0,0,0,0,0,0c0,0,0,0,0,0
					c0,0,0,0,0,0c0,0,0,0,0,0c0,0,0,0,0,0c0,0,0,0,0,0c0,0,0,0,0,0c0,0,0,0,0,0c0,0,0,0,0,0c0,0,0,0,0,0c0,0,0,0,0,0c0,0,0,0,0,0
					c0,0,0,0,0,0c0,0,0,0,0,0c0,0,0,0,0,0c0,0,0,0,0,0c0,0,0,0,0,0h-1.1c-0.2,0-0.3,0.1-0.3,0.3v6.9c0,0.2,0.1,0.3,0.3,0.3h1.1
					c0.2,0,0.3-0.1,0.3-0.3V23l3.2,4.3c0,0,0,0.1,0.1,0.1c0,0,0,0,0,0c0,0,0,0,0,0c0,0,0,0,0,0c0,0,0,0,0,0c0,0,0,0,0,0c0,0,0,0,0,0
					c0,0,0,0,0,0c0,0,0,0,0,0c0,0,0.1,0,0.1,0h1.1c0.2,0,0.3-0.1,0.3-0.3v-6.9C29.5,20,29.4,19.9,29.2,19.9"/>
				<path class="st0" d="M18.9,25.7h-3v-5.5c0-0.2-0.1-0.3-0.3-0.3h-1.1c-0.2,0-0.3,0.1-0.3,0.3v6.9v0c0,0.1,0,0.2,0.1,0.2
					c0,0,0,0,0,0c0,0,0,0,0,0c0.1,0.1,0.1,0.1,0.2,0.1h0h4.5c0.2,0,0.3-0.1,0.3-0.3V26C19.2,25.8,19,25.7,18.9,25.7"/>
				<path class="st0" d="M35.4,21.6c0.2,0,0.3-0.1,0.3-0.3v-1.1c0-0.2-0.1-0.3-0.3-0.3h-4.5h0c-0.1,0-0.2,0-0.2,0.1c0,0,0,0,0,0
					c0,0,0,0,0,0c-0.1,0.1-0.1,0.1-0.1,0.2v0v6.9v0c0,0.1,0,0.2,0.1,0.2c0,0,0,0,0,0c0,0,0,0,0,0c0.1,0.1,0.1,0.1,0.2,0.1h0h4.5
					c0.2,0,0.3-0.1,0.3-0.3V26c0-0.2-0.1-0.3-0.3-0.3h-3v-1.2h3c0.2,0,0.3-0.1,0.3-0.3v-1.1c0-0.2-0.1-0.3-0.3-0.3h-3v-1.2H35.4z"/>
			</g>
		</g>
	</g>
</g>
</svg>
