<?xml version="1.0" encoding="utf-8"?>
<!-- Generator: Adobe Illustrator 25.0.1, SVG Export Plug-In . SVG Version: 6.00 Build 0)  -->
<!DOCTYPE svg PUBLIC "-//W3C//DTD SVG 1.1//EN" "http://www.w3.org/Graphics/SVG/1.1/DTD/svg11.dtd" [
	<!ENTITY ns_extend "http://ns.adobe.com/Extensibility/1.0/">
	<!ENTITY ns_ai "http://ns.adobe.com/AdobeIllustrator/10.0/">
	<!ENTITY ns_graphs "http://ns.adobe.com/Graphs/1.0/">
	<!ENTITY ns_vars "http://ns.adobe.com/Variables/1.0/">
	<!ENTITY ns_imrep "http://ns.adobe.com/ImageReplacement/1.0/">
	<!ENTITY ns_sfw "http://ns.adobe.com/SaveForWeb/1.0/">
	<!ENTITY ns_custom "http://ns.adobe.com/GenericCustomNamespace/1.0/">
	<!ENTITY ns_adobe_xpath "http://ns.adobe.com/XPath/1.0/">
]>
<svg version="1.1" id="Layer_1" xmlns:x="&ns_extend;" xmlns:i="&ns_ai;" xmlns:graph="&ns_graphs;"
	 xmlns="http://www.w3.org/2000/svg" xmlns:xlink="http://www.w3.org/1999/xlink" x="0px" y="0px" viewBox="0 0 56.9 56.9"
	 style="enable-background:new 0 0 56.9 56.9;" xml:space="preserve">
<style type="text/css">
	.st0{fill:#231F20;}
	.st1{fill:none;stroke:#231F20;stroke-width:3.504;stroke-miterlimit:10;}
</style>
<metadata>
	<sfw  xmlns="&ns_sfw;">
		<slices></slices>
		<sliceSourceBounds  bottomLeftOrigin="true" height="71.1" width="16383" x="-8141" y="-72.1"></sliceSourceBounds>
	</sfw>
</metadata>
<g>
	<path class="st0" d="M15.1,54.2c-0.3,0.3-0.8,0.4-1.1,0.1l-5.6-4.6C8,49.4,8,48.9,8.3,48.6l0.2-0.3c0.3-0.3,0.8-0.4,1.1-0.1
		l5.6,4.6c0.3,0.3,0.4,0.8,0.1,1.1L15.1,54.2z"/>
	<path class="st0" d="M12.9,55.6L2.9,68.9l-1.2,1.6c-0.4,0.5-0.9,0.8-1.4,1.1C-0.1,71.8-0.5,72-1,72c-0.1,0-0.3,0.1-0.4,0.1
		c-1.1,0.1-2.3-0.2-3.3-1c-1.9-1.6-2.2-4.4-0.6-6.3l1.4-1.5L7.3,50.9L12.9,55.6z"/>
</g>
<g>
	<path class="st0" d="M16.1,22.1c-0.1,0.2-0.2,0.4-0.2,0.5c-0.1,0.3-0.1,0.4-0.2,0.5c-0.2,0-0.3-0.1-0.5-0.1
		c-0.1,0.1-0.2,0.2-0.3,0.2c-0.2,0-0.5-0.1-0.7-0.1c-0.4-0.1-0.8-0.1-1.2-0.2c-0.7-0.1-0.9-0.8-0.8-1.4c0-0.6,0.6-0.8,1.1-0.8
		c0.5-0.1,1.1-0.3,1.5,0C15.4,21.1,15.1,22.3,16.1,22.1z"/>
	<path class="st0" d="M47,26.7c0-0.6-1.4-1.8-1.8-2.2c-0.3-0.2-1.1-1-1.4-1.2c-0.2-0.1-0.2-0.1-0.3-0.2c0-0.1-0.1-0.2-0.2-0.5
		c0-0.1-0.1-0.3-0.2-0.5c-0.8-1.4-3-4.8-3.2-5c-0.2-0.2-0.7-0.7-1.4-0.8c-0.7-0.1-7.6-0.5-8.9-0.5c-1.3,0-8.3,0.4-9,0.5
		c-0.7,0.1-1.2,0.6-1.4,0.8c-0.2,0.2-2.4,3.6-3.2,5c-0.1,0.2-0.2,0.4-0.2,0.5c-0.1,0.3-0.1,0.4-0.1,0.5c0,0.1-0.2,0.2-0.3,0.2
		c0,0,0,0,0,0c-0.2,0.1-1,0.7-1.4,1.1c-0.6,0.7-1.7,1.7-1.8,2.2c0,0.6-0.3,1-0.2,2.1c0,0.6,0.2,2.2,0.3,3.8c0.2,1.7,0.3,3.3,0.3,3.4
		c0,0.2-0.1,0.5,0.1,0.7c0.1,0.2,0.4,0.3,0.8,0.3c0.1,0,1.6,0,3.6,0c4.7,0.1,12.5,0.2,12.5,0.2s8-0.1,12.7-0.2c1.9,0,3.2,0,3.3,0
		c0.4,0,0.7-0.1,0.8-0.3c0.1-0.2,0-0.5,0-0.7c0-0.2,0.3-3,0.5-5.2c0.1-0.9,0.1-1.7,0.2-2.1C47.3,27.6,47,27.2,47,26.7z M44.3,26.2
		c0.6,0,0.7-0.1,0.9,0.5c0.1,0.4,0.1,0.9,0,1.2c-0.2,1.2-1.8,1.2-2.7,1.2c-1.8,0-3.4,0.5-4.8-2.1c1.2-0.4,2.7-0.3,3.9-0.5
		C42.5,26.3,43.4,26.2,44.3,26.2z M19.6,17.3l10-0.3l10,0.3c0,0,3.6,5.6,3.3,5.6c-0.3,0-9.3-0.5-13.3-0.4c-4-0.1-13.1,0.4-13.3,0.4
		C16,22.9,19.6,17.3,19.6,17.3z M14,26.8c0.1-0.6,0.2-0.5,0.9-0.5c0.9,0,1.8,0.1,2.8,0.3c1.2,0.2,2.7,0.2,3.9,0.5
		c-1.4,2.5-3,2.1-4.8,2.1c-1,0-2.5,0-2.7-1.2C13.9,27.6,13.9,27.1,14,26.8z M20.5,35.9c-0.6,0.2-2,0.2-2.6,0.2c-0.2,0-0.5,0-0.7,0
		c-0.6,0-1.1,0-1.7,0c-0.3,0-0.5,0-0.8,0c-1,0-1.1-0.3-0.9-1.3c0.2-0.7,0.1-1.4,0.8-1.7c0.3-0.1,1.2-0.1,2.3-0.1c0.1,0,0.2,0,0.4,0
		c0.4,0,0.7,0,1.1,0c0.2,0,0.5,0,0.7,0c0.1,0,0.2,0,0.3,0c0.1,0,0.3,0,0.4,0c0.1,0,0.2,0,0.4,0c0.1,0,0.2,0,0.4,0
		c0.2,0,0.3,0,0.5,0.1c0.1,0,0.2,0,0.3,0c0.1,0,0.2,0,0.3,0c0,0,0.1,0,0.1,0c0.1,0,0.1,0,0.2,0c0,0,0,0,0.1,0c0,0,0.1,0,0.1,0
		c0.1,0,0.1,0,0.2,0C21.7,34.3,21.4,35.5,20.5,35.9z M36.2,34.6c-0.3,1-1.7,0.8-1.8,0.8l-9.4,0c-0.1,0-1.5,0.1-1.8-0.8
		c-0.4-1-0.9-2.6-1.1-3.3c-0.2-0.8-0.9-2.2,3.1-2.2c2.1,0,3.6,0,4.5,0c1,0,2.5,0,4.5,0c4-0.1,3.3,1.3,3.1,2.1
		C37.1,32.1,36.5,33.7,36.2,34.6z M44.6,36c-0.8,0-1.5,0-2.3,0c-0.3,0-0.6,0-0.9,0c-0.7,0-2,0.1-2.6-0.2c-1-0.3-1.2-1.6-1.5-2.5
		c0.1,0,0.1,0,0.2,0c0.1,0,0.2,0,0.3-0.1c0.1,0,0.1,0,0.2,0c0,0,0,0,0.1,0c0.1,0,0.2,0,0.3,0h0c0.1,0,0.2,0,0.3,0
		c0.3,0,0.5-0.1,0.8-0.1c0.1,0,0.2,0,0.2,0c0.4,0,0.9-0.1,1.4-0.1c0.1,0,0.2,0,0.3,0h0.3c0.1,0,0.2,0,0.3,0h0.2c1.2,0,2.1,0,2.4,0.1
		c0.7,0.3,0.6,0.9,0.8,1.7C45.8,35.7,45.6,36,44.6,36z"/>
	<path class="st0" d="M17.1,37.8v1.9c0,0.2-0.1,0.3-0.3,0.3l-4.1,0c-0.2,0-0.3-0.1-0.3-0.3v-2.3c0.4,0.3,0.9,0.3,1.2,0.3
		C13.5,37.7,17.1,37.8,17.1,37.8L17.1,37.8z"/>
	<path class="st0" d="M47.1,37.1v2.6c0,0.2-0.1,0.3-0.3,0.3l-4.1,0c-0.2,0-0.3-0.1-0.3-0.3v-1.9c1.9,0,3.3,0,3.3,0
		C46,37.7,46.8,37.7,47.1,37.1z"/>
	<path class="st0" d="M16.7,34.5c0,0.7-0.6,1.2-1.2,1.2c-0.7,0-1.2-0.6-1.2-1.2c0-0.7,0.6-1.2,1.2-1.2
		C16.2,33.2,16.7,33.8,16.7,34.5z"/>
	<path class="st0" d="M46.3,22.9c-0.4,0.1-0.8,0.2-1.2,0.2c-0.2,0-0.5,0.1-0.7,0.1c-0.2,0-0.2-0.2-0.3-0.2c-0.1,0-0.3,0-0.5,0.1
		c0-0.1-0.1-0.2-0.2-0.5c0-0.1-0.1-0.3-0.2-0.5c1,0.2,0.7-1,1.3-1.4c0.4-0.3,1.1-0.1,1.5,0c0.5,0.1,1,0.3,1.1,0.8
		C47.1,22.2,46.9,22.8,46.3,22.9z"/>
	<path class="st0" d="M18.9,34.5c0,0.5-0.4,0.9-0.9,0.9c-0.5,0-0.9-0.4-0.9-0.9c0-0.5,0.4-0.9,0.9-0.9C18.5,33.6,18.9,34,18.9,34.5z
		"/>
	<path class="st0" d="M44.9,34.5c0,0.7-0.6,1.2-1.2,1.2c-0.7,0-1.2-0.6-1.2-1.2c0-0.7,0.6-1.2,1.2-1.2
		C44.3,33.2,44.9,33.8,44.9,34.5z"/>
	<path class="st0" d="M41.9,34.5c0,0.5-0.4,0.9-0.9,0.9c-0.5,0-0.9-0.4-0.9-0.9c0-0.5,0.4-0.9,0.9-0.9C41.5,33.6,41.9,34,41.9,34.5z
		"/>
</g>
<ellipse class="st1" cx="29.6" cy="27.9" rx="25" ry="24.9"/>
</svg>
