<?xml version="1.0" encoding="utf-8"?>
<!-- Generator: Adobe Illustrator 25.0.1, SVG Export Plug-In . SVG Version: 6.00 Build 0)  -->
<!DOCTYPE svg PUBLIC "-//W3C//DTD SVG 1.1//EN" "http://www.w3.org/Graphics/SVG/1.1/DTD/svg11.dtd" [
	<!ENTITY ns_extend "http://ns.adobe.com/Extensibility/1.0/">
	<!ENTITY ns_ai "http://ns.adobe.com/AdobeIllustrator/10.0/">
	<!ENTITY ns_graphs "http://ns.adobe.com/Graphs/1.0/">
	<!ENTITY ns_vars "http://ns.adobe.com/Variables/1.0/">
	<!ENTITY ns_imrep "http://ns.adobe.com/ImageReplacement/1.0/">
	<!ENTITY ns_sfw "http://ns.adobe.com/SaveForWeb/1.0/">
	<!ENTITY ns_custom "http://ns.adobe.com/GenericCustomNamespace/1.0/">
	<!ENTITY ns_adobe_xpath "http://ns.adobe.com/XPath/1.0/">
]>
<svg version="1.1" id="Layer_1" xmlns:x="&ns_extend;" xmlns:i="&ns_ai;" xmlns:graph="&ns_graphs;"
	 xmlns="http://www.w3.org/2000/svg" xmlns:xlink="http://www.w3.org/1999/xlink" x="0px" y="0px" viewBox="0 0 56.9 56.9"
	 style="enable-background:new 0 0 56.9 56.9;" xml:space="preserve">
<style type="text/css">
	.st0{fill:#231F20;}
</style>
<metadata>
	<sfw  xmlns="&ns_sfw;">
		<slices></slices>
		<sliceSourceBounds  bottomLeftOrigin="true" height="55" width="16383" x="-8141" y="-56"></sliceSourceBounds>
	</sfw>
</metadata>
<g>
	<path class="st0" d="M46.7,26.8l-0.1-0.1l0,0L31.2,8.1l-0.4-0.5c-0.3-0.3-0.7-0.4-1.1-0.4h-5.3V5.9h-8.3v1.3h-4.4
		c-1,0-1.8,0.8-1.8,1.8v45.1c0,1,0.8,1.8,1.8,1.8h33.6c1,0,1.8-0.8,1.8-1.8V27.9C47,27.5,46.9,27.1,46.7,26.8z M41,50.1H15.4V31.5
		H41V50.1z M32.4,26.5l-1-12.7l9.9,12.3l0.5,0.7L32.4,26.5z"/>
	<path class="st0" d="M31.2,8.1l-0.4-0.5C30.9,7.8,31.1,7.9,31.2,8.1z"/>
	<rect x="15.4" y="1.2" class="st0" width="9.7" height="3.8"/>
	<path class="st0" d="M32.1,40.7l-0.1-0.1l-3.6-6.4L24.7,41c-0.4,0.6-0.5,1.3-0.5,2.1c0,2.4,1.9,4.3,4.3,4.3c2.4,0,4.3-1.9,4.3-4.3
		C32.8,42.2,32.6,41.4,32.1,40.7z M27.6,46.1c-0.3,0.4-0.9,0-1.2-0.1c-0.4-0.2-1.2-0.9-1.2-1.5c0.1-0.8,0.9-0.3,1.4,0.1
		C27.2,45.1,27.7,45.9,27.6,46.1z"/>
</g>
</svg>
