<?xml version="1.0" encoding="utf-8"?>
<!-- Generator: Adobe Illustrator 25.0.1, SVG Export Plug-In . SVG Version: 6.00 Build 0)  -->
<!DOCTYPE svg PUBLIC "-//W3C//DTD SVG 1.1//EN" "http://www.w3.org/Graphics/SVG/1.1/DTD/svg11.dtd" [
	<!ENTITY ns_extend "http://ns.adobe.com/Extensibility/1.0/">
	<!ENTITY ns_ai "http://ns.adobe.com/AdobeIllustrator/10.0/">
	<!ENTITY ns_graphs "http://ns.adobe.com/Graphs/1.0/">
	<!ENTITY ns_vars "http://ns.adobe.com/Variables/1.0/">
	<!ENTITY ns_imrep "http://ns.adobe.com/ImageReplacement/1.0/">
	<!ENTITY ns_sfw "http://ns.adobe.com/SaveForWeb/1.0/">
	<!ENTITY ns_custom "http://ns.adobe.com/GenericCustomNamespace/1.0/">
	<!ENTITY ns_adobe_xpath "http://ns.adobe.com/XPath/1.0/">
]>
<svg version="1.1" id="Layer_1" xmlns:x="&ns_extend;" xmlns:i="&ns_ai;" xmlns:graph="&ns_graphs;"
	 xmlns="http://www.w3.org/2000/svg" xmlns:xlink="http://www.w3.org/1999/xlink" x="0px" y="0px" viewBox="0 0 56.9 56.9"
	 style="enable-background:new 0 0 56.9 56.9;" xml:space="preserve">
<style type="text/css">
	.st0{fill:#231F20;}
</style>
<metadata>
	<sfw  xmlns="&ns_sfw;">
		<slices></slices>
		<sliceSourceBounds  bottomLeftOrigin="true" height="55" width="16383" x="-8141" y="-56"></sliceSourceBounds>
	</sfw>
</metadata>
<path class="st0" d="M48.4,44.5v11h-40v-11h17.5c0.2,0.8,0.6,1.5,1.1,2.1c0.9,1.1,2.3,1.8,3.6,1.8c2.2,0,4.1-1.6,4.8-3.9H48.4z"/>
<path class="st0" d="M34.3,5.1h-7.2c0.3-2.1,1.8-3.6,3.6-3.6c1,0,1.9,0.5,2.6,1.3C33.8,3.4,34.2,4.2,34.3,5.1z"/>
<path class="st0" d="M34.4,41.9v0.8c0,2.4-1.6,4.3-3.6,4.3c-1,0-1.9-0.5-2.6-1.3c-0.7-0.8-1.1-1.9-1.1-3.1v-0.8H34.4z"/>
<path class="st0" d="M36.8,14h-3.5l3.7,1.4c0.1,0,0.2,0.1,0.3,0.1c0,0,0,0,0,0c0.5,0.2,0.9,0.8,0.9,1.4c0,0.8-0.7,1.5-1.5,1.5h-3.5
	l3.7,1.4c0.1,0,0.2,0.1,0.3,0.1c0,0,0,0,0,0c0.5,0.2,0.9,0.8,0.9,1.4c0,0.8-0.7,1.5-1.5,1.5h-3.4l3.7,1.3c0.1,0,0.2,0.1,0.3,0.2
	c0.5,0.2,0.9,0.8,0.9,1.4c0,0.8-0.7,1.5-1.5,1.5h-3.5l3.7,1.4c0.1,0,0.2,0.1,0.3,0.1c0.6,0.2,1,0.8,1,1.4c0,0.8-0.7,1.5-1.5,1.5
	h-3.5l3.7,1.4c0.1,0,0.2,0.1,0.3,0.1c0,0,0,0,0,0c0.5,0.2,0.9,0.8,0.9,1.4c0,0.8-0.7,1.5-1.5,1.5h-3.5l3.7,1.4
	c0.1,0,0.2,0.1,0.3,0.1c0,0,0,0,0,0c0.5,0.2,0.9,0.8,0.9,1.4c0,0.8-0.7,1.5-1.5,1.5H24.1c-0.9,0-1.5-0.7-1.5-1.5
	c0-0.8,0.7-1.5,1.5-1.5h4l-3.8-1.4h-0.2c-0.9,0-1.5-0.7-1.5-1.5c0-0.8,0.7-1.5,1.5-1.5h4l-3.8-1.4h-0.2c-0.9,0-1.5-0.7-1.5-1.5
	c0-0.8,0.7-1.5,1.5-1.5h4l-3.8-1.4h-0.2c-0.9,0-1.5-0.7-1.5-1.5c0-0.8,0.7-1.5,1.5-1.5h4l-3.8-1.4h-0.2c-0.9,0-1.5-0.7-1.5-1.5
	c0-0.8,0.7-1.5,1.5-1.5h4l-3.8-1.4h-0.2c-0.9,0-1.5-0.7-1.5-1.5c0-0.9,0.7-1.5,1.5-1.5h4L24.3,14h-0.2c-0.9,0-1.5-0.7-1.5-1.5
	s0.7-1.5,1.5-1.5h4l-3.8-1.4h-0.2c-0.9,0-1.5-0.7-1.5-1.5c0-0.8,0.7-1.5,1.5-1.5h12.6c0.8,0,1.5,0.7,1.5,1.5c0,0.9-0.7,1.5-1.5,1.5
	h-3.5l3.7,1.4c0.1,0,0.2,0.1,0.3,0.1c0,0,0,0,0,0c0.5,0.2,0.9,0.8,0.9,1.4C38.3,13.3,37.6,14,36.8,14z"/>
</svg>
