<?xml version="1.0" encoding="utf-8"?>
<!-- Generator: Adobe Illustrator 25.0.1, SVG Export Plug-In . SVG Version: 6.00 Build 0)  -->
<!DOCTYPE svg PUBLIC "-//W3C//DTD SVG 1.1//EN" "http://www.w3.org/Graphics/SVG/1.1/DTD/svg11.dtd" [
	<!ENTITY ns_extend "http://ns.adobe.com/Extensibility/1.0/">
	<!ENTITY ns_ai "http://ns.adobe.com/AdobeIllustrator/10.0/">
	<!ENTITY ns_graphs "http://ns.adobe.com/Graphs/1.0/">
	<!ENTITY ns_vars "http://ns.adobe.com/Variables/1.0/">
	<!ENTITY ns_imrep "http://ns.adobe.com/ImageReplacement/1.0/">
	<!ENTITY ns_sfw "http://ns.adobe.com/SaveForWeb/1.0/">
	<!ENTITY ns_custom "http://ns.adobe.com/GenericCustomNamespace/1.0/">
	<!ENTITY ns_adobe_xpath "http://ns.adobe.com/XPath/1.0/">
]>
<svg version="1.1" id="Layer_1" xmlns:x="&ns_extend;" xmlns:i="&ns_ai;" xmlns:graph="&ns_graphs;"
	 xmlns="http://www.w3.org/2000/svg" xmlns:xlink="http://www.w3.org/1999/xlink" x="0px" y="0px" viewBox="0 0 56.9 56.9"
	 style="enable-background:new 0 0 56.9 56.9;" xml:space="preserve">
<style type="text/css">
	.st0{fill:#231F20;stroke:#231F20;stroke-width:1.2883;stroke-miterlimit:10;}
</style>
<metadata>
	<sfw  xmlns="&ns_sfw;">
		<slices></slices>
		<sliceSourceBounds  bottomLeftOrigin="true" height="55" width="16383" x="-8141" y="-56"></sliceSourceBounds>
	</sfw>
</metadata>
<path class="st0" d="M40,1.8c-0.1,0-0.3-0.1-0.4-0.1h-0.3v0c-0.1,0-0.2,0-0.4,0H17.4c-1,0-1.9,0.9-1.9,1.9v49.7
	c0,1.1,0.9,1.9,1.9,1.9h22.2c0.1,0,0.3,0,0.4,0c0.8-0.2,1.5-0.9,1.5-1.9V3.6C41.5,2.7,40.8,1.9,40,1.8z M32.1,2.7h6.9l0.2-0.1v0.1
	h-0.2l-6.9,2.4V2.7z M17.5,2.6l0.3,0.1h6.9v2.4l-6.9-2.4L17.5,2.6L17.5,2.6z M17.5,4.2l7.2,2.5v5.1l-7.2-2.5V4.2z M17.5,10.8
	l7.2,2.5v5.1l-7.2-2.5V10.8z M17.5,17.4l7.2,2.5V25l-7.2-2.5V17.4z M17.5,24l7.2,2.5v5.1L17.5,29V24z M17.5,30.6l7.2,2.5v5.1
	l-7.2-2.5V30.6z M17.5,37.2l7.2,2.5v5.1l-7.2-2.5V37.2z M17.5,43.8l7.2,2.5v5.1l-7.2-2.5V43.8z M17.5,54v-3.6l7.2,2.5V54H17.5z
	 M26.2,54V2.7h1.7V54H26.2z M30.7,54H29V2.7h1.7V54z M39.3,54h-7.2v-1.1l7.2-2.5V54z M39.3,48.8l-7.2,2.5v-5.1l7.2-2.5V48.8z
	 M39.3,42.2l-7.2,2.5v-5.1l7.2-2.5V42.2z M39.3,35.6l-7.2,2.5v-5.1l7.2-2.5V35.6z M39.3,29l-7.2,2.5v-5.1l7.2-2.5V29z M39.3,22.4
	L32.1,25v-5.1l7.2-2.5V22.4z M39.3,15.8l-7.2,2.5v-5.1l7.2-2.5V15.8z M39.3,9.2l-7.2,2.5V6.7l7.2-2.5V9.2z"/>
</svg>
