<?xml version="1.0" encoding="utf-8"?>
<!-- Generator: Adobe Illustrator 25.0.1, SVG Export Plug-In . SVG Version: 6.00 Build 0)  -->
<!DOCTYPE svg PUBLIC "-//W3C//DTD SVG 1.1//EN" "http://www.w3.org/Graphics/SVG/1.1/DTD/svg11.dtd" [
	<!ENTITY ns_extend "http://ns.adobe.com/Extensibility/1.0/">
	<!ENTITY ns_ai "http://ns.adobe.com/AdobeIllustrator/10.0/">
	<!ENTITY ns_graphs "http://ns.adobe.com/Graphs/1.0/">
	<!ENTITY ns_vars "http://ns.adobe.com/Variables/1.0/">
	<!ENTITY ns_imrep "http://ns.adobe.com/ImageReplacement/1.0/">
	<!ENTITY ns_sfw "http://ns.adobe.com/SaveForWeb/1.0/">
	<!ENTITY ns_custom "http://ns.adobe.com/GenericCustomNamespace/1.0/">
	<!ENTITY ns_adobe_xpath "http://ns.adobe.com/XPath/1.0/">
]>
<svg version="1.1" id="Layer_1" xmlns:x="&ns_extend;" xmlns:i="&ns_ai;" xmlns:graph="&ns_graphs;"
	 xmlns="http://www.w3.org/2000/svg" xmlns:xlink="http://www.w3.org/1999/xlink" x="0px" y="0px" viewBox="0 0 190 87"
	 style="enable-background:new 0 0 190 87;" xml:space="preserve">
<style type="text/css">
	.st0{fill:#F8981D;}
</style>
<metadata>
	<sfw  xmlns="&ns_sfw;">
		<slices></slices>
		<sliceSourceBounds  bottomLeftOrigin="true" height="82.7" width="187" x="1.5" y="-85"></sliceSourceBounds>
	</sfw>
</metadata>
<g>
	<path class="st0" d="M86,41.4c0.2-1,0.4-1.8,0.5-2.3c0.2-0.5,0.5-1.1,1-1.8c0.5-0.7,1.2-1.1,2.1-1.4c0.9-0.3,2.1-0.4,3.5-0.4
		c1.2,0,2.1,0.1,2.8,0.3c0.7,0.2,1.3,0.5,1.6,0.8c0.3,0.3,0.6,0.8,0.7,1.4c0.1,0.6,0.1,1.1,0.1,1.6c-0.1,0.4-0.2,1.1-0.3,1.9
		l-6.6,37.6c-0.2,1.1-0.4,1.9-0.5,2.4c-0.2,0.5-0.5,1.1-1,1.8c-0.5,0.7-1.2,1.1-2.1,1.4c-0.9,0.3-2.1,0.4-3.5,0.4
		c-1.2,0-2.1-0.1-2.8-0.3c-0.7-0.2-1.3-0.5-1.6-0.8c-0.4-0.3-0.6-0.8-0.7-1.4c-0.1-0.6-0.1-1.1-0.1-1.6c0.1-0.4,0.2-1.1,0.3-1.9
		L86,41.4z"/>
	<path class="st0" d="M101,55.3c0.2-1,0.4-1.8,0.5-2.3c0.2-0.5,0.5-1.1,0.9-1.8c0.5-0.7,1.1-1.1,2-1.4c0.9-0.3,2.1-0.4,3.5-0.4
		c1.1,0,2.1,0.1,2.8,0.3c0.7,0.2,1.3,0.5,1.6,0.8c0.3,0.3,0.5,0.8,0.6,1.4c0.1,0.6,0.1,1.1,0.1,1.6c-0.1,0.4-0.2,1.1-0.3,1.9
		l-4.2,23.7c-0.2,1-0.4,1.8-0.5,2.3c-0.2,0.5-0.5,1.1-0.9,1.8c-0.5,0.7-1.1,1.1-2,1.4c-0.9,0.3-2.1,0.4-3.5,0.4
		c-1.4,0-2.5-0.1-3.3-0.4c-0.8-0.3-1.3-0.7-1.5-1.4c-0.2-0.7-0.3-1.3-0.3-1.8c0-0.5,0.1-1.3,0.3-2.4L101,55.3z M108.7,44.6
		c-1.4,0-2.5-0.1-3.3-0.4c-0.8-0.3-1.3-0.7-1.5-1.4c-0.2-0.7-0.3-1.3-0.3-1.8c0-0.5,0.1-1.3,0.3-2.3c0.2-1,0.4-1.8,0.5-2.3
		c0.2-0.5,0.5-1.1,0.9-1.8c0.5-0.7,1.1-1.1,2-1.4c0.9-0.3,2.1-0.4,3.5-0.4c1.4,0,2.5,0.1,3.3,0.4c0.8,0.3,1.3,0.7,1.5,1.4
		c0.2,0.7,0.3,1.3,0.3,1.8c0,0.5-0.1,1.3-0.3,2.3c-0.2,1-0.4,1.8-0.5,2.3c-0.2,0.5-0.5,1.1-0.9,1.8c-0.5,0.7-1.1,1.1-2,1.4
		C111.3,44.4,110.2,44.6,108.7,44.6z"/>
	<path class="st0" d="M120.6,41.4c0.2-1,0.4-1.8,0.5-2.3c0.2-0.5,0.5-1.1,1-1.8c0.5-0.7,1.2-1.1,2.1-1.4c0.9-0.3,2.1-0.4,3.5-0.4
		c1.2,0,2.1,0.1,2.8,0.3c0.7,0.2,1.3,0.5,1.6,0.8c0.3,0.3,0.6,0.8,0.7,1.4c0.1,0.6,0.1,1.1,0.1,1.6c-0.1,0.4-0.2,1.1-0.3,1.9
		L126,79.1c-0.2,1.1-0.4,1.9-0.5,2.4c-0.2,0.5-0.5,1.1-1,1.8c-0.5,0.7-1.2,1.1-2.1,1.4c-0.9,0.3-2.1,0.4-3.5,0.4
		c-1.2,0-2.1-0.1-2.8-0.3c-0.7-0.2-1.3-0.5-1.6-0.8c-0.4-0.3-0.6-0.8-0.7-1.4c-0.1-0.6-0.1-1.1-0.1-1.6c0.1-0.4,0.2-1.1,0.3-1.9
		L120.6,41.4z"/>
	<path class="st0" d="M132.8,61.6c0.4-2.2,1.6-3.7,3.5-4.6c17.1-9.1,27.7-14.9,31.9-17.2c0.9-0.5,1.6-0.8,2.1-1
		c0.5-0.2,1.1-0.2,1.7-0.3c0.7,0,1.3,0.2,1.8,0.8c0.5,0.5,1,1.4,1.5,2.5c0.4,1,0.7,1.9,0.7,2.7c0,0.8-0.2,1.5-0.6,2.1
		c-0.4,0.6-0.9,1-1.4,1.4c-0.5,0.3-1.1,0.8-2,1.3c-14.8,7.9-22.5,12.1-23.1,12.4l18.8,12.4c0.8,0.5,1.3,0.9,1.6,1.2
		c0.3,0.3,0.6,0.8,0.9,1.4c0.3,0.6,0.2,1.3-0.1,2.1c-0.3,0.8-0.9,1.7-1.8,2.8c-0.9,1.1-1.7,1.9-2.4,2.4c-0.7,0.5-1.4,0.8-2.1,0.8
		c-0.7,0-1.2-0.1-1.6-0.3c-0.4-0.2-1-0.5-1.7-1l-25.9-17.2C132.9,65.6,132.3,64,132.8,61.6z"/>
	<path class="st0" d="M133.2,2.6c0.6,0,1.1,0.1,1.5,0.2c0.4,0.1,0.7,0.3,0.9,0.4c0.2,0.2,0.4,0.4,0.5,0.7c0.1,0.3,0.2,0.6,0.2,0.8
		c0,0.2,0,0.6,0,1v10.8c0,1.5-0.3,3-0.8,4.5c-0.5,1.5-1.2,2.8-2.2,4.1c-0.9,1.2-2.2,2.2-3.7,3c-1.5,0.7-3.2,1.1-5,1.1
		c-1.8,0-3.5-0.4-4.9-1.1c-1.5-0.8-2.7-1.8-3.6-3c-0.9-1.2-1.6-2.6-2.1-4.1c-0.5-1.5-0.7-3-0.7-4.5V5.7c0-0.6,0-1,0.1-1.3
		c0-0.3,0.1-0.6,0.3-0.9c0.2-0.4,0.5-0.6,1-0.7c0.5-0.1,1.1-0.2,1.8-0.2c0.8,0,1.4,0.1,1.8,0.2c0.5,0.1,0.8,0.4,0.9,0.7
		c0.2,0.4,0.3,0.7,0.3,1c0,0.3,0.1,0.7,0.1,1.3v10.7c0,0.7,0.1,1.4,0.2,2.1c0.2,0.7,0.4,1.4,0.8,2c0.4,0.7,0.9,1.2,1.6,1.6
		c0.7,0.4,1.6,0.6,2.5,0.6c1.7,0,3-0.6,3.9-1.9c0.9-1.3,1.3-2.8,1.3-4.5V5.5c0-0.5,0-0.9,0.1-1.2c0-0.3,0.2-0.6,0.4-0.9
		c0.2-0.3,0.5-0.5,1-0.7C131.9,2.6,132.5,2.6,133.2,2.6z"/>
	<path class="st0" d="M141,2.6h19.8c0.5,0,0.8,0,1,0.1c0.2,0,0.5,0.1,0.7,0.3c0.3,0.1,0.5,0.4,0.6,0.8c0.1,0.4,0.2,0.9,0.2,1.5
		c0,0.6-0.1,1.1-0.2,1.5c-0.1,0.4-0.3,0.6-0.6,0.8c-0.3,0.1-0.5,0.2-0.8,0.3c-0.2,0-0.6,0.1-1.1,0.1h-6.8v18c0,0.5,0,1-0.1,1.2
		c0,0.3-0.1,0.6-0.3,0.9c-0.2,0.3-0.5,0.6-0.9,0.7c-0.5,0.1-1,0.2-1.8,0.2c-0.7,0-1.3-0.1-1.8-0.2c-0.4-0.1-0.7-0.4-0.9-0.7
		c-0.2-0.3-0.3-0.7-0.3-0.9c0-0.3-0.1-0.7-0.1-1.2V7.7h-6.9c-0.5,0-0.8,0-1-0.1c-0.2,0-0.5-0.1-0.8-0.3c-0.3-0.1-0.5-0.4-0.6-0.8
		c-0.1-0.4-0.2-0.9-0.2-1.5c0-0.6,0.1-1.1,0.2-1.5c0.1-0.4,0.3-0.6,0.6-0.8c0.3-0.1,0.5-0.2,0.8-0.3C140.1,2.6,140.5,2.6,141,2.6z"
		/>
	<path class="st0" d="M175.5,2.3c3.5,0,6.6,1.3,9.2,3.8c2.6,2.5,3.9,5.8,3.9,9.7c0,3.6-1.2,6.8-3.7,9.4c-2.5,2.7-5.5,4-9,4
		c-3.7,0-6.8-1.3-9.3-3.9c-2.5-2.6-3.8-5.7-3.8-9.4c0-2,0.4-3.8,1.1-5.6c0.7-1.7,1.7-3.2,2.9-4.3c1.2-1.2,2.6-2.1,4.1-2.7
		C172.2,2.6,173.8,2.3,175.5,2.3z M175.6,22.9c1.7,0,3.2-0.6,4.6-1.9c1.4-1.3,2-3,2-5.2c0-2.1-0.7-3.9-2.1-5.2c-1.4-1.3-2.9-2-4.6-2
		c-1.7,0-3.2,0.7-4.6,2c-1.4,1.3-2,3.1-2,5.2c0,2.1,0.7,3.8,2.1,5.1C172.4,22.2,173.9,22.9,175.6,22.9z"/>
	<path class="st0" d="M95.6,2.9c1.5,0,2.6,0.6,3.1,1.7l11.2,18.7c0.3,0.5,0.5,0.9,0.7,1.2c0.1,0.3,0.2,0.7,0.2,1.1
		c0,0.4-0.2,0.8-0.5,1.3c-0.4,0.4-0.9,0.8-1.6,1.3c-0.7,0.4-1.3,0.7-1.8,0.8c-0.5,0.1-1,0.1-1.3-0.2c-0.4-0.2-0.7-0.5-0.9-0.7
		c-0.2-0.2-0.5-0.7-0.8-1.2l-8.1-13.7l-8.1,13.6c-0.3,0.5-0.6,0.9-0.8,1.2c-0.2,0.3-0.5,0.5-0.9,0.7c-0.4,0.2-0.8,0.3-1.3,0.2
		c-0.5-0.1-1.1-0.4-1.8-0.8c-0.7-0.4-1.3-0.9-1.6-1.3c-0.4-0.4-0.5-0.8-0.5-1.3c0-0.4,0.1-0.8,0.2-1.1c0.1-0.3,0.3-0.7,0.6-1.2
		L92.6,4.7C93.2,3.5,94.2,2.9,95.6,2.9z"/>
	<path class="st0" d="M42.7,84.9c-0.1,0-0.3,0-0.4,0l-0.4,0c-2.8-0.2-5.2-0.5-7.9-1.1l-0.3-0.1c-3.6-0.9-6.5-2-9.4-3.4l-0.1-0.1
		c-5.9-3.1-10.4-6.8-13.9-11.2c-2.6-3.4-4.5-6.7-5.8-10.2c-0.1-0.3-0.3-0.6-0.5-1l-0.1-0.2l-0.1-0.3C2.3,52.8,1.6,48.9,1.6,45
		c-0.1-0.4-0.1-0.9-0.1-1.4c0-1.8,0.2-3.5,0.4-5.1l0-0.2c0.1-0.6,0.2-1.1,0.3-1.5c0.5-3.2,1.5-6.3,3-9.8l0.1-0.3l0.2-0.3
		c0-0.1,0.1-0.2,0.1-0.3c0.1-0.3,0.3-0.8,0.6-1.2C13.1,11.8,26.1,3.3,40.5,2.7c0.4-0.1,0.9-0.1,1.4-0.1c0.2,0,0.3,0,0.5,0
		c13.6,0,26.2,6.4,34,17.2c2.1,2.9,1.4,7-1.5,9.1c-2.9,2.1-7,1.4-9.1-1.5C60.6,20.1,52,15.7,42.7,15.6c-0.4,0.1-0.8,0.1-1.2,0.1
		c-9.9,0.2-19,6.1-23.7,15.2l-0.2,0.3c0,0.1-0.1,0.2-0.1,0.3c-0.1,0.3-0.3,0.6-0.5,1c-1.1,2.6-1.7,4.7-2,6.8
		c-0.1,0.4-0.1,0.8-0.3,1.2c-0.1,0.9-0.2,1.7-0.2,2.5c0.1,0.4,0.1,0.8,0.1,1.3C14.6,47,15,49.6,16,52.7c0.1,0.2,0.3,0.5,0.4,0.9
		l0.1,0.4c0.8,2.3,2.1,4.6,4,7c2.3,2.9,5.4,5.4,9.6,7.6c2,1,4,1.7,6.6,2.4c2,0.4,3.7,0.7,5.8,0.8c2.2,0,4-0.1,5.8-0.4
		c1.8-0.4,3.5-0.8,5.1-1.3c1.9-0.7,3.8-1.7,5.9-3c2-1.4,3.8-3.2,6-5.7c2.4-2.7,6.5-3,9.2-0.6c2.7,2.4,3,6.5,0.6,9.2
		c-2.2,2.5-4.9,5.5-8.5,7.9L66.4,78c-3,1.9-5.7,3.3-8.6,4.4l-0.2,0.1c-2.2,0.7-4.5,1.3-6.9,1.8l-0.2,0C48,84.7,45.5,84.9,42.7,84.9z
		"/>
	<path class="st0" d="M86,41.4c0.2-1,0.4-1.8,0.5-2.3c0.2-0.5,0.5-1.1,1-1.8c0.5-0.7,1.2-1.1,2.1-1.4c0.9-0.3,2.1-0.4,3.5-0.4
		c1.2,0,2.1,0.1,2.8,0.3c0.7,0.2,1.3,0.5,1.6,0.8c0.3,0.3,0.6,0.8,0.7,1.4c0.1,0.6,0.1,1.1,0.1,1.6c-0.1,0.4-0.2,1.1-0.3,1.9
		l-6.6,37.6c-0.2,1.1-0.4,1.9-0.5,2.4c-0.2,0.5-0.5,1.1-1,1.8c-0.5,0.7-1.2,1.1-2.1,1.4c-0.9,0.3-2.1,0.4-3.5,0.4
		c-1.2,0-2.1-0.1-2.8-0.3c-0.7-0.2-1.3-0.5-1.6-0.8c-0.4-0.3-0.6-0.8-0.7-1.4c-0.1-0.6-0.1-1.1-0.1-1.6c0.1-0.4,0.2-1.1,0.3-1.9
		L86,41.4z"/>
	<path class="st0" d="M101,55.3c0.2-1,0.4-1.8,0.5-2.3c0.2-0.5,0.5-1.1,0.9-1.8c0.5-0.7,1.1-1.1,2-1.4c0.9-0.3,2.1-0.4,3.5-0.4
		c1.1,0,2.1,0.1,2.8,0.3c0.7,0.2,1.3,0.5,1.6,0.8c0.3,0.3,0.5,0.8,0.6,1.4c0.1,0.6,0.1,1.1,0.1,1.6c-0.1,0.4-0.2,1.1-0.3,1.9
		l-4.2,23.7c-0.2,1-0.4,1.8-0.5,2.3c-0.2,0.5-0.5,1.1-0.9,1.8c-0.5,0.7-1.1,1.1-2,1.4c-0.9,0.3-2.1,0.4-3.5,0.4
		c-1.4,0-2.5-0.1-3.3-0.4c-0.8-0.3-1.3-0.7-1.5-1.4c-0.2-0.7-0.3-1.3-0.3-1.8c0-0.5,0.1-1.3,0.3-2.4L101,55.3z M108.7,44.6
		c-1.4,0-2.5-0.1-3.3-0.4c-0.8-0.3-1.3-0.7-1.5-1.4c-0.2-0.7-0.3-1.3-0.3-1.8c0-0.5,0.1-1.3,0.3-2.3c0.2-1,0.4-1.8,0.5-2.3
		c0.2-0.5,0.5-1.1,0.9-1.8c0.5-0.7,1.1-1.1,2-1.4c0.9-0.3,2.1-0.4,3.5-0.4c1.4,0,2.5,0.1,3.3,0.4c0.8,0.3,1.3,0.7,1.5,1.4
		c0.2,0.7,0.3,1.3,0.3,1.8c0,0.5-0.1,1.3-0.3,2.3c-0.2,1-0.4,1.8-0.5,2.3c-0.2,0.5-0.5,1.1-0.9,1.8c-0.5,0.7-1.1,1.1-2,1.4
		C111.3,44.4,110.2,44.6,108.7,44.6z"/>
	<path class="st0" d="M120.6,41.4c0.2-1,0.4-1.8,0.5-2.3c0.2-0.5,0.5-1.1,1-1.8c0.5-0.7,1.2-1.1,2.1-1.4c0.9-0.3,2.1-0.4,3.5-0.4
		c1.2,0,2.1,0.1,2.8,0.3c0.7,0.2,1.3,0.5,1.6,0.8c0.3,0.3,0.6,0.8,0.7,1.4c0.1,0.6,0.1,1.1,0.1,1.6c-0.1,0.4-0.2,1.1-0.3,1.9
		L126,79.1c-0.2,1.1-0.4,1.9-0.5,2.4c-0.2,0.5-0.5,1.1-1,1.8c-0.5,0.7-1.2,1.1-2.1,1.4c-0.9,0.3-2.1,0.4-3.5,0.4
		c-1.2,0-2.1-0.1-2.8-0.3c-0.7-0.2-1.3-0.5-1.6-0.8c-0.4-0.3-0.6-0.8-0.7-1.4c-0.1-0.6-0.1-1.1-0.1-1.6c0.1-0.4,0.2-1.1,0.3-1.9
		L120.6,41.4z"/>
	<path class="st0" d="M132.8,61.6c0.4-2.2,1.6-3.7,3.5-4.6c17.1-9.1,27.7-14.9,31.9-17.2c0.9-0.5,1.6-0.8,2.1-1
		c0.5-0.2,1.1-0.2,1.7-0.3c0.7,0,1.3,0.2,1.8,0.8c0.5,0.5,1,1.4,1.5,2.5c0.4,1,0.7,1.9,0.7,2.7c0,0.8-0.2,1.5-0.6,2.1
		c-0.4,0.6-0.9,1-1.4,1.4c-0.5,0.3-1.1,0.8-2,1.3c-14.8,7.9-22.5,12.1-23.1,12.4l18.8,12.4c0.8,0.5,1.3,0.9,1.6,1.2
		c0.3,0.3,0.6,0.8,0.9,1.4c0.3,0.6,0.2,1.3-0.1,2.1c-0.3,0.8-0.9,1.7-1.8,2.8c-0.9,1.1-1.7,1.9-2.4,2.4c-0.7,0.5-1.4,0.8-2.1,0.8
		c-0.7,0-1.2-0.1-1.6-0.3c-0.4-0.2-1-0.5-1.7-1l-25.9-17.2C132.9,65.6,132.3,64,132.8,61.6z"/>
	<path class="st0" d="M133.2,2.6c0.6,0,1.1,0.1,1.5,0.2c0.4,0.1,0.7,0.3,0.9,0.4c0.2,0.2,0.4,0.4,0.5,0.7c0.1,0.3,0.2,0.6,0.2,0.8
		c0,0.2,0,0.6,0,1v10.8c0,1.5-0.3,3-0.8,4.5c-0.5,1.5-1.2,2.8-2.2,4.1c-0.9,1.2-2.2,2.2-3.7,3c-1.5,0.7-3.2,1.1-5,1.1
		c-1.8,0-3.5-0.4-4.9-1.1c-1.5-0.8-2.7-1.8-3.6-3c-0.9-1.2-1.6-2.6-2.1-4.1c-0.5-1.5-0.7-3-0.7-4.5V5.7c0-0.6,0-1,0.1-1.3
		c0-0.3,0.1-0.6,0.3-0.9c0.2-0.4,0.5-0.6,1-0.7c0.5-0.1,1.1-0.2,1.8-0.2c0.8,0,1.4,0.1,1.8,0.2c0.5,0.1,0.8,0.4,0.9,0.7
		c0.2,0.4,0.3,0.7,0.3,1c0,0.3,0.1,0.7,0.1,1.3v10.7c0,0.7,0.1,1.4,0.2,2.1c0.2,0.7,0.4,1.4,0.8,2c0.4,0.7,0.9,1.2,1.6,1.6
		c0.7,0.4,1.6,0.6,2.5,0.6c1.7,0,3-0.6,3.9-1.9c0.9-1.3,1.3-2.8,1.3-4.5V5.5c0-0.5,0-0.9,0.1-1.2c0-0.3,0.2-0.6,0.4-0.9
		c0.2-0.3,0.5-0.5,1-0.7C131.9,2.6,132.5,2.6,133.2,2.6z"/>
	<path class="st0" d="M141,2.6h19.8c0.5,0,0.8,0,1,0.1c0.2,0,0.5,0.1,0.7,0.3c0.3,0.1,0.5,0.4,0.6,0.8c0.1,0.4,0.2,0.9,0.2,1.5
		c0,0.6-0.1,1.1-0.2,1.5c-0.1,0.4-0.3,0.6-0.6,0.8c-0.3,0.1-0.5,0.2-0.8,0.3c-0.2,0-0.6,0.1-1.1,0.1h-6.8v18c0,0.5,0,1-0.1,1.2
		c0,0.3-0.1,0.6-0.3,0.9c-0.2,0.3-0.5,0.6-0.9,0.7c-0.5,0.1-1,0.2-1.8,0.2c-0.7,0-1.3-0.1-1.8-0.2c-0.4-0.1-0.7-0.4-0.9-0.7
		c-0.2-0.3-0.3-0.7-0.3-0.9c0-0.3-0.1-0.7-0.1-1.2V7.7h-6.9c-0.5,0-0.8,0-1-0.1c-0.2,0-0.5-0.1-0.8-0.3c-0.3-0.1-0.5-0.4-0.6-0.8
		c-0.1-0.4-0.2-0.9-0.2-1.5c0-0.6,0.1-1.1,0.2-1.5c0.1-0.4,0.3-0.6,0.6-0.8c0.3-0.1,0.5-0.2,0.8-0.3C140.1,2.6,140.5,2.6,141,2.6z"
		/>
	<path class="st0" d="M175.5,2.3c3.5,0,6.6,1.3,9.2,3.8c2.6,2.5,3.9,5.8,3.9,9.7c0,3.6-1.2,6.8-3.7,9.4c-2.5,2.7-5.5,4-9,4
		c-3.7,0-6.8-1.3-9.3-3.9c-2.5-2.6-3.8-5.7-3.8-9.4c0-2,0.4-3.8,1.1-5.6c0.7-1.7,1.7-3.2,2.9-4.3c1.2-1.2,2.6-2.1,4.1-2.7
		C172.2,2.6,173.8,2.3,175.5,2.3z M175.6,22.9c1.7,0,3.2-0.6,4.6-1.9c1.4-1.3,2-3,2-5.2c0-2.1-0.7-3.9-2.1-5.2c-1.4-1.3-2.9-2-4.6-2
		c-1.7,0-3.2,0.7-4.6,2c-1.4,1.3-2,3.1-2,5.2c0,2.1,0.7,3.8,2.1,5.1C172.4,22.2,173.9,22.9,175.6,22.9z"/>
	<path class="st0" d="M95.6,2.9c1.5,0,2.6,0.6,3.1,1.7l11.2,18.7c0.3,0.5,0.5,0.9,0.7,1.2c0.1,0.3,0.2,0.7,0.2,1.1
		c0,0.4-0.2,0.8-0.5,1.3c-0.4,0.4-0.9,0.8-1.6,1.3c-0.7,0.4-1.3,0.7-1.8,0.8c-0.5,0.1-1,0.1-1.3-0.2c-0.4-0.2-0.7-0.5-0.9-0.7
		c-0.2-0.2-0.5-0.7-0.8-1.2l-8.1-13.7l-8.1,13.6c-0.3,0.5-0.6,0.9-0.8,1.2c-0.2,0.3-0.5,0.5-0.9,0.7c-0.4,0.2-0.8,0.3-1.3,0.2
		c-0.5-0.1-1.1-0.4-1.8-0.8c-0.7-0.4-1.3-0.9-1.6-1.3c-0.4-0.4-0.5-0.8-0.5-1.3c0-0.4,0.1-0.8,0.2-1.1c0.1-0.3,0.3-0.7,0.6-1.2
		L92.6,4.7C93.2,3.5,94.2,2.9,95.6,2.9z"/>
	<path class="st0" d="M42.7,84.9c-0.1,0-0.3,0-0.4,0l-0.4,0c-2.8-0.2-5.2-0.5-7.9-1.1l-0.3-0.1c-3.6-0.9-6.5-2-9.4-3.4l-0.1-0.1
		c-5.9-3.1-10.4-6.8-13.9-11.2c-2.6-3.4-4.5-6.7-5.8-10.2c-0.1-0.3-0.3-0.6-0.5-1l-0.1-0.2l-0.1-0.3C2.3,52.8,1.6,48.9,1.6,45
		c-0.1-0.4-0.1-0.9-0.1-1.4c0-1.8,0.2-3.5,0.4-5.1l0-0.2c0.1-0.6,0.2-1.1,0.3-1.5c0.5-3.2,1.5-6.3,3-9.8l0.1-0.3l0.2-0.3
		c0-0.1,0.1-0.2,0.1-0.3c0.1-0.3,0.3-0.8,0.6-1.2C13.1,11.8,26.1,3.3,40.5,2.7c0.4-0.1,0.9-0.1,1.4-0.1c0.2,0,0.3,0,0.5,0
		c13.6,0,26.2,6.4,34,17.2c2.1,2.9,1.4,7-1.5,9.1c-2.9,2.1-7,1.4-9.1-1.5C60.6,20.1,52,15.7,42.7,15.6c-0.4,0.1-0.8,0.1-1.2,0.1
		c-9.9,0.2-19,6.1-23.7,15.2l-0.2,0.3c0,0.1-0.1,0.2-0.1,0.3c-0.1,0.3-0.3,0.6-0.5,1c-1.1,2.6-1.7,4.7-2,6.8
		c-0.1,0.4-0.1,0.8-0.3,1.2c-0.1,0.9-0.2,1.7-0.2,2.5c0.1,0.4,0.1,0.8,0.1,1.3C14.6,47,15,49.6,16,52.7c0.1,0.2,0.3,0.5,0.4,0.9
		l0.1,0.4c0.8,2.3,2.1,4.6,4,7c2.3,2.9,5.4,5.4,9.6,7.6c2,1,4,1.7,6.6,2.4c2,0.4,3.7,0.7,5.8,0.8c2.2,0,4-0.1,5.8-0.4
		c1.8-0.4,3.5-0.8,5.1-1.3c1.9-0.7,3.8-1.7,5.9-3c2-1.4,3.8-3.2,6-5.7c2.4-2.7,6.5-3,9.2-0.6c2.7,2.4,3,6.5,0.6,9.2
		c-2.2,2.5-4.9,5.5-8.5,7.9L66.4,78c-3,1.9-5.7,3.3-8.6,4.4l-0.2,0.1c-2.2,0.7-4.5,1.3-6.9,1.8l-0.2,0C48,84.7,45.5,84.9,42.7,84.9z
		"/>
</g>
</svg>
