<?xml version="1.0" encoding="utf-8"?>
<!-- Generator: Adobe Illustrator 25.0.1, SVG Export Plug-In . SVG Version: 6.00 Build 0)  -->
<!DOCTYPE svg PUBLIC "-//W3C//DTD SVG 1.1//EN" "http://www.w3.org/Graphics/SVG/1.1/DTD/svg11.dtd" [
	<!ENTITY ns_extend "http://ns.adobe.com/Extensibility/1.0/">
	<!ENTITY ns_ai "http://ns.adobe.com/AdobeIllustrator/10.0/">
	<!ENTITY ns_graphs "http://ns.adobe.com/Graphs/1.0/">
	<!ENTITY ns_vars "http://ns.adobe.com/Variables/1.0/">
	<!ENTITY ns_imrep "http://ns.adobe.com/ImageReplacement/1.0/">
	<!ENTITY ns_sfw "http://ns.adobe.com/SaveForWeb/1.0/">
	<!ENTITY ns_custom "http://ns.adobe.com/GenericCustomNamespace/1.0/">
	<!ENTITY ns_adobe_xpath "http://ns.adobe.com/XPath/1.0/">
]>
<svg version="1.1" id="Layer_1" xmlns:x="&ns_extend;" xmlns:i="&ns_ai;" xmlns:graph="&ns_graphs;"
	 xmlns="http://www.w3.org/2000/svg" xmlns:xlink="http://www.w3.org/1999/xlink" x="0px" y="0px" viewBox="0 0 397 81"
	 style="enable-background:new 0 0 397 81;" xml:space="preserve">
<style type="text/css">
	.st0{fill:#F8981D;}
</style>
<metadata>
	<sfw  xmlns="&ns_sfw;">
		<slices></slices>
		<sliceSourceBounds  bottomLeftOrigin="true" height="70.7" width="383.6" x="-149.3" y="-75.4"></sliceSourceBounds>
	</sfw>
</metadata>
<g>
	<g>
		<path class="st0" d="M8.9,78.4L6.7,48.1l8.1-3.6l21.1,21.8l-7.3,3.3l-3.9-4.4l-9.6,4.3l0.7,5.8L8.9,78.4z M14.4,62.8l5.9-2.6
			l-6.6-7.4L13.3,53L14.4,62.8z"/>
		<path class="st0" d="M33.1,54.8l-5.6-16.1l6.6-2.3l5.6,15.9c1.3,3.8,3.9,4.9,7.6,3.6c3.8-1.3,5-3.7,3.7-7.5l-5.6-15.9l6.6-2.3
			l5.6,16.1c2.8,7.9-0.4,12.9-8.2,15.7C41.7,64.6,35.9,62.8,33.1,54.8z"/>
		<path class="st0" d="M72.2,53.7l-6.2-21.3l-8.4,2.5l-1.8-6.1l23.6-6.9l1.8,6.1l-8.4,2.5l6.2,21.3L72.2,53.7z"/>
		<path class="st0" d="M85.1,35c-2-9.3,2.3-15.7,11.2-17.7c8.9-2,15.5,2,17.6,11.3c2,9.3-2.3,15.7-11.2,17.7
			C93.8,48.3,87.2,44.3,85.1,35z M106.7,30.3c-1.1-5.2-4.6-7.7-9-6.7c-4.4,1-6.5,4.7-5.4,9.9c1.1,5.2,4.6,7.7,9,6.7
			C105.7,39.2,107.9,35.5,106.7,30.3z"/>
		<path class="st0" d="M117.6,28c-1.3-9.5,3.6-15.5,12.2-16.7c6.2-0.9,13.4,1.8,15,9.9l-7.3,1c-0.9-3.7-4.2-4.9-6.7-4.6
			c-4.3,0.6-6.6,3.9-5.8,9.3c0.8,5.5,3.9,8.1,8.2,7.4c2.6-0.4,5.3-2.5,5.2-6.3l7.3-1c0.7,8.1-5.4,12.7-11.7,13.6
			C125.4,42,119,37.7,117.6,28z"/>
		<path class="st0" d="M150.4,38.1l-2.1-28.5l6.9-0.5l1.6,22.2l13.7-1l0.5,6.3L150.4,38.1z"/>
		<path class="st0" d="M173.9,36.6l-0.9-28.5l7-0.2l0.9,28.5L173.9,36.6z"/>
		<path class="st0" d="M185.4,36.2l0.5-28.6l7,0.1l-0.2,12.4l0.4,0L203.5,8l8.2,0.1l-11.6,13.6L212,36.7l-9-0.2l-10-12.6l-0.4,0
			l-0.2,12.4L185.4,36.2z"/>
		<path class="st0" d="M224.9,37.7l3.2-28.4l20.7,2.3l-0.7,6.3l-13.8-1.5l-0.7,6l12,1.3L245,30l-12-1.3l-1.1,9.9L224.9,37.7z"/>
		<path class="st0" d="M243.2,39.6l15-26.4l8.8,1.5l5.4,29.9l-7.8-1.3l-0.8-5.8l-10.4-1.8l-2.7,5.2L243.2,39.6z M256.4,29.7l6.4,1.1
			l-1.4-9.9l-0.4-0.1L256.4,29.7z"/>
		<path class="st0" d="M275.2,36.6c0.1-0.3,0.1-0.6,0.3-0.9l6.8,1.6c-0.1,0.2-0.1,0.4-0.2,0.6c-0.6,2.5,1.3,3.8,4.2,4.5
			c3.1,0.7,4.8,0.4,5.2-1.3c1.1-4.6-16.2-5.3-13.6-15.8c1.4-5.6,7-7.6,13.5-6c8.1,1.9,11.1,6.2,9.8,11.6c-0.1,0.3-0.2,0.7-0.3,1
			l-6.8-1.6c0.1-0.2,0.1-0.4,0.2-0.7c0.4-1.9-0.5-3.5-4-4.4c-2.8-0.7-4.8-0.6-5.2,1.3c-1.1,4.6,16.1,5.4,13.6,15.9
			c-1.3,5.4-6.7,7.7-13.5,6C275.3,45.9,274.3,40.5,275.2,36.6z"/>
		<path class="st0" d="M306.8,53.5l6.6-21.2l-8.4-2.6l1.9-6l23.5,7.2l-1.9,6l-8.4-2.6l-6.6,21.2L306.8,53.5z"/>
		<path class="st0" d="M324.3,59.1l10.1-26.7l19.5,7.4l-2.2,5.9l-13-4.9l-2.1,5.6l11.3,4.3l-2.2,5.9l-11.3-4.3l-3.5,9.3L324.3,59.1z
			"/>
		<path class="st0" d="M346.9,67.8l11.2-26.3l6.4,2.7l-11.2,26.3L346.9,67.8z"/>
		<path class="st0" d="M363.7,75.3l9.6-20l-7.9-3.8l2.7-5.7l22.1,10.6l-2.7,5.7l-7.9-3.8l-9.6,20L363.7,75.3z"/>
	</g>
</g>
</svg>
