<?xml version="1.0" encoding="utf-8"?>
<!-- Generator: Adobe Illustrator 25.0.1, SVG Export Plug-In . SVG Version: 6.00 Build 0)  -->
<!DOCTYPE svg PUBLIC "-//W3C//DTD SVG 1.1//EN" "http://www.w3.org/Graphics/SVG/1.1/DTD/svg11.dtd" [
	<!ENTITY ns_extend "http://ns.adobe.com/Extensibility/1.0/">
	<!ENTITY ns_ai "http://ns.adobe.com/AdobeIllustrator/10.0/">
	<!ENTITY ns_graphs "http://ns.adobe.com/Graphs/1.0/">
	<!ENTITY ns_vars "http://ns.adobe.com/Variables/1.0/">
	<!ENTITY ns_imrep "http://ns.adobe.com/ImageReplacement/1.0/">
	<!ENTITY ns_sfw "http://ns.adobe.com/SaveForWeb/1.0/">
	<!ENTITY ns_custom "http://ns.adobe.com/GenericCustomNamespace/1.0/">
	<!ENTITY ns_adobe_xpath "http://ns.adobe.com/XPath/1.0/">
]>
<svg version="1.1" id="Layer_1" xmlns:x="&ns_extend;" xmlns:i="&ns_ai;" xmlns:graph="&ns_graphs;"
	 xmlns="http://www.w3.org/2000/svg" xmlns:xlink="http://www.w3.org/1999/xlink" x="0px" y="0px" viewBox="0 0 191.9 43.9"
	 style="enable-background:new 0 0 191.9 43.9;" xml:space="preserve">
<style type="text/css">
	.st0{fill:#F8981D;}
</style>
<metadata>
	<sfw  xmlns="&ns_sfw;">
		<slices></slices>
		<sliceSourceBounds  bottomLeftOrigin="true" height="16383" width="116.5" x="40.2" y="-8242"></sliceSourceBounds>
	</sfw>
</metadata>
<g>
	<g>
		<path class="st0" d="M51.3,36.9l-1.9-22.2l-8.8,0.7l-0.5-6.3l24.5-2.1l0.5,6.3l-8.8,0.7l1.9,22.2L51.3,36.9z"/>
		<path class="st0" d="M69,35.6L67.5,7.1l6.9-0.4L76,35.2L69,35.6z"/>
		<path class="st0" d="M79.8,34.9L79.1,6.4l12.8-0.3c8.4-0.2,10.9,3.8,11,8c0.1,4-1.5,6.4-4.6,7.6l0,0.4c2.7,1,4.2,2.8,5.1,6.9
			l1.1,5.3l-7.1,0.2l-1-5.2c-0.6-3.2-2.1-4.2-4.9-4.1l-4.9,0.1l0.2,9.4L79.8,34.9z M86.4,19l4.8-0.1c2.8-0.1,4.5-0.9,4.4-3.5
			c-0.1-2.6-1.7-3.1-4.5-3l-4.8,0.1L86.4,19z"/>
		<path class="st0" d="M107.4,34.4L108,5.9l21.7,0.5l-0.1,6.3l-14.7-0.3l-0.1,4.8l12.9,0.3l-0.1,6.3l-12.9-0.3l-0.1,4.8l14.9,0.3
			l-0.1,6.3L107.4,34.4z"/>
		<path class="st0" d="M132,26.6c0-0.3,0-0.6,0.1-1l6.9,0.5c-0.1,0.2-0.1,0.4-0.1,0.6c-0.2,2.5,2,3.5,4.9,3.7
			c3.2,0.2,4.8-0.4,4.9-2.2c0.3-4.7-16.8-2.5-16.1-13.3c0.4-5.8,5.7-8.6,12.3-8.2c8.3,0.5,12,4.2,11.6,9.7c0,0.3,0,0.7-0.1,1
			l-6.9-0.5c0.1-0.2,0.1-0.4,0.1-0.7c0.1-1.9-1.1-3.4-4.7-3.6c-2.9-0.2-4.8,0.2-4.9,2.2c-0.3,4.7,16.8,2.6,16.1,13.3
			c-0.4,5.5-5.3,8.7-12.3,8.2C133.6,35.7,131.7,30.6,132,26.6z"/>
	</g>
</g>
</svg>
