<?xml version="1.0" encoding="utf-8"?>
<!-- Generator: Adobe Illustrator 25.0.1, SVG Export Plug-In . SVG Version: 6.00 Build 0)  -->
<!DOCTYPE svg PUBLIC "-//W3C//DTD SVG 1.1//EN" "http://www.w3.org/Graphics/SVG/1.1/DTD/svg11.dtd" [
	<!ENTITY ns_extend "http://ns.adobe.com/Extensibility/1.0/">
	<!ENTITY ns_ai "http://ns.adobe.com/AdobeIllustrator/10.0/">
	<!ENTITY ns_graphs "http://ns.adobe.com/Graphs/1.0/">
	<!ENTITY ns_vars "http://ns.adobe.com/Variables/1.0/">
	<!ENTITY ns_imrep "http://ns.adobe.com/ImageReplacement/1.0/">
	<!ENTITY ns_sfw "http://ns.adobe.com/SaveForWeb/1.0/">
	<!ENTITY ns_custom "http://ns.adobe.com/GenericCustomNamespace/1.0/">
	<!ENTITY ns_adobe_xpath "http://ns.adobe.com/XPath/1.0/">
]>
<svg version="1.1" id="Layer_1" xmlns:x="&ns_extend;" xmlns:i="&ns_ai;" xmlns:graph="&ns_graphs;"
	 xmlns="http://www.w3.org/2000/svg" xmlns:xlink="http://www.w3.org/1999/xlink" x="0px" y="0px" viewBox="0 0 227.9 85.9"
	 style="enable-background:new 0 0 227.9 85.9;" xml:space="preserve">
<style type="text/css">
	.st0{fill:#F8981D;}
</style>
<metadata>
	<sfw  xmlns="&ns_sfw;">
		<slices></slices>
		<sliceSourceBounds  bottomLeftOrigin="true" height="16383" width="16383" x="-8141" y="-8242"></sliceSourceBounds>
	</sfw>
</metadata>
<g>
	<g>
		<path class="st0" d="M28.6,46.2l-3.9-28.3l6.9-1l3,22L48.2,37l0.9,6.3L28.6,46.2z"/>
		<path class="st0" d="M49.3,31.7l-1.6-17l7-0.7l1.6,16.9c0.4,4.1,2.6,5.7,6.6,5.3c4-0.4,5.8-2.4,5.4-6.4l-1.6-16.9l7-0.7l1.6,17
			c0.8,8.4-3.5,12.5-11.7,13.3C55.3,43.3,50.1,40,49.3,31.7z"/>
		<path class="st0" d="M79.9,40.5l-1.3-28.5l14.6-0.7c6.4-0.3,8.9,2.9,9.2,7c0.1,2.9-1,5.6-4.1,6.9l0,0.4c3.7,0.9,5.4,3.4,5.6,6.6
			c0.2,4.1-2.1,7.4-8.5,7.8L79.9,40.5z M85.8,22.9l7.3-0.3c1.9,0,2.6-1.5,2.6-2.9c0-1.3-0.8-2.3-2.8-2.3l-7.3,0.3L85.8,22.9z
			 M86.3,34.1l7.7-0.4c1.9,0,2.7-1.6,2.6-2.9c-0.1-1.4-1-2.4-2.9-2.3l-7.6,0.3L86.3,34.1z"/>
		<path class="st0" d="M107,39.3l0-28.6l21.7,0l0,6.4l-14.7,0.1l0,4.8l12.9,0l0,6.4l-12.9,0l0,4.8l14.9,0l0,6.4L107,39.3z"/>
		<path class="st0" d="M142.5,25.4c0.7-9.5,6.6-14.5,15.7-13.9s14.3,6.2,13.7,15.7c-0.7,9.5-6.6,14.5-15.7,13.9
			C147.2,40.5,142,34.9,142.5,25.4z M164.6,26.8c0.3-5.3-2.3-8.7-6.8-9s-7.6,2.6-7.9,8c-0.3,5.4,2.3,8.7,6.9,9
			C161.2,35.1,164.3,32.1,164.6,26.8z"/>
		<path class="st0" d="M174,42l2.9-28.4l7,0.7L181,42.7L174,42z"/>
		<path class="st0" d="M184.7,43.1l3.7-28.4l6.9,0.9l-2.8,22l13.6,1.8l-0.8,6.2L184.7,43.1z"/>
	</g>
	<g>
		<g>
			<path class="st0" d="M52.9,75.8l-2.5-28.4l20.8-1.7l0.5,6.3L58,53l0.5,6L70.5,58l0.5,6.3L59,65.3l0.9,9.9L52.9,75.8z"/>
			<path class="st0" d="M76.2,73.9l-1.6-28.5l6.9-0.4l1.6,28.5L76.2,73.9z"/>
			<path class="st0" d="M87,73.3l-0.8-28.5l7-0.2l0.6,22.3l13.8-0.3l0.1,6.3L87,73.3z"/>
			<path class="st0" d="M112.5,72.9l0.2-22.3l-8.8,0l0.1-6.3l24.5,0.2l-0.1,6.3l-8.8,0L119.4,73L112.5,72.9z"/>
			<path class="st0" d="M130.1,73l1.4-28.5l21.6,1l-0.3,6.3l-14.7-0.7l-0.3,4.8l12.9,0.6l-0.3,6.3l-12.9-0.6l-0.3,4.8l14.9,0.7
				l-0.3,6.3L130.1,73z"/>
			<path class="st0" d="M155,74.3l2.6-28.4l12.7,1.2c8.4,0.7,10.4,5,10,9.3c-0.4,4-2.1,6.2-5.4,7.1l0,0.4c2.6,1.3,3.8,3.3,4.3,7.5
				l0.5,5.4l-7-0.7l-0.4-5.3c-0.3-3.3-1.6-4.4-4.4-4.6l-4.9-0.4L162,75L155,74.3z M163.3,59.1l4.8,0.5c2.8,0.3,4.5-0.4,4.8-2.9
				c0.2-2.6-1.3-3.2-4.2-3.5l-4.8-0.5L163.3,59.1z"/>
		</g>
	</g>
</g>
</svg>
