<?xml version="1.0" encoding="utf-8"?>
<!-- Generator: Adobe Illustrator 25.0.1, SVG Export Plug-In . SVG Version: 6.00 Build 0)  -->
<!DOCTYPE svg PUBLIC "-//W3C//DTD SVG 1.1//EN" "http://www.w3.org/Graphics/SVG/1.1/DTD/svg11.dtd" [
	<!ENTITY ns_extend "http://ns.adobe.com/Extensibility/1.0/">
	<!ENTITY ns_ai "http://ns.adobe.com/AdobeIllustrator/10.0/">
	<!ENTITY ns_graphs "http://ns.adobe.com/Graphs/1.0/">
	<!ENTITY ns_vars "http://ns.adobe.com/Variables/1.0/">
	<!ENTITY ns_imrep "http://ns.adobe.com/ImageReplacement/1.0/">
	<!ENTITY ns_sfw "http://ns.adobe.com/SaveForWeb/1.0/">
	<!ENTITY ns_custom "http://ns.adobe.com/GenericCustomNamespace/1.0/">
	<!ENTITY ns_adobe_xpath "http://ns.adobe.com/XPath/1.0/">
]>
<svg version="1.1" id="Layer_1" xmlns:x="&ns_extend;" xmlns:i="&ns_ai;" xmlns:graph="&ns_graphs;"
	 xmlns="http://www.w3.org/2000/svg" xmlns:xlink="http://www.w3.org/1999/xlink" x="0px" y="0px" viewBox="0 0 191.9 43.9"
	 style="enable-background:new 0 0 191.9 43.9;" xml:space="preserve">
<style type="text/css">
	.st0{fill:#F8981D;}
</style>
<metadata>
	<sfw  xmlns="&ns_sfw;">
		<slices></slices>
		<sliceSourceBounds  bottomLeftOrigin="true" height="16383" width="16383" x="-8141" y="-8242"></sliceSourceBounds>
	</sfw>
</metadata>
<g>
	<g>
		<path class="st0" d="M30.3,38.1L27.7,9.6l14.6-1.4c6.4-0.6,9.1,2.5,9.4,6.5c0.3,2.9-0.8,5.6-3.8,7.1l0,0.4
			c3.8,0.7,5.6,3.2,5.9,6.3c0.4,4-1.7,7.5-8.1,8.1L30.3,38.1z M35.4,20.2l7.3-0.7c2-0.2,2.5-1.6,2.4-3c-0.1-1.4-0.9-2.3-2.9-2.1
			l-7.3,0.7L35.4,20.2z M36.5,31.4l7.6-0.7c2-0.2,2.6-1.7,2.5-3c-0.1-1.4-1.1-2.3-3.1-2.2L36,26.2L36.5,31.4z"/>
		<path class="st0" d="M57.4,35.6L56,7.1l12.8-0.6c8.4-0.4,11,3.5,11.2,7.8c0.2,4-1.3,6.4-4.4,7.7l0,0.4c2.8,0.9,4.2,2.7,5.2,6.8
			l1.2,5.3L75,34.8l-1.2-5.2c-0.7-3.2-2.2-4.1-5-4l-4.9,0.2l0.4,9.4L57.4,35.6z M63.6,19.5l4.8-0.2c2.8-0.1,4.4-1,4.3-3.6
			c-0.1-2.6-1.8-3-4.6-2.9l-4.8,0.2L63.6,19.5z"/>
		<path class="st0" d="M82.1,34.4L92.5,5.9l8.9,0l10.4,28.6l-8,0l-1.8-5.6l-10.5,0l-1.8,5.6L82.1,34.4z M93.5,22.5l6.5,0l-3-9.5
			l-0.4,0L93.5,22.5z"/>
		<path class="st0" d="M112.6,34.5L113.9,6l7,0.3l-0.6,12.4l0.4,0l10.9-11.9l8.2,0.4l-12,13.3l11.5,15.3l-9-0.4l-9.6-12.9l-0.4,0
			l-0.6,12.4L112.6,34.5z"/>
		<path class="st0" d="M140.1,35.9l2.6-28.4l21.6,2l-0.6,6.3L149,14.4l-0.4,4.8l12.9,1.2l-0.6,6.3L148,25.5l-0.4,4.8l14.9,1.4
			l-0.6,6.3L140.1,35.9z"/>
	</g>
</g>
</svg>
