<?xml version="1.0" encoding="utf-8"?>
<!-- Generator: Adobe Illustrator 25.0.1, SVG Export Plug-In . SVG Version: 6.00 Build 0)  -->
<!DOCTYPE svg PUBLIC "-//W3C//DTD SVG 1.1//EN" "http://www.w3.org/Graphics/SVG/1.1/DTD/svg11.dtd" [
	<!ENTITY ns_extend "http://ns.adobe.com/Extensibility/1.0/">
	<!ENTITY ns_ai "http://ns.adobe.com/AdobeIllustrator/10.0/">
	<!ENTITY ns_graphs "http://ns.adobe.com/Graphs/1.0/">
	<!ENTITY ns_vars "http://ns.adobe.com/Variables/1.0/">
	<!ENTITY ns_imrep "http://ns.adobe.com/ImageReplacement/1.0/">
	<!ENTITY ns_sfw "http://ns.adobe.com/SaveForWeb/1.0/">
	<!ENTITY ns_custom "http://ns.adobe.com/GenericCustomNamespace/1.0/">
	<!ENTITY ns_adobe_xpath "http://ns.adobe.com/XPath/1.0/">
]>
<svg version="1.1" id="Layer_1" xmlns:x="&ns_extend;" xmlns:i="&ns_ai;" xmlns:graph="&ns_graphs;"
	 xmlns="http://www.w3.org/2000/svg" xmlns:xlink="http://www.w3.org/1999/xlink" x="0px" y="0px" viewBox="0 0 191.9 43.9"
	 style="enable-background:new 0 0 191.9 43.9;" xml:space="preserve">
<style type="text/css">
	.st0{fill:#F8981D;}
</style>
<metadata>
	<sfw  xmlns="&ns_sfw;">
		<slices></slices>
		<sliceSourceBounds  bottomLeftOrigin="true" height="16383" width="16383" x="-8141" y="-8242"></sliceSourceBounds>
	</sfw>
</metadata>
<g>
	<g>
		<path class="st0" d="M33.7,38.2L22.9,10.6l7.9-0.8L37.2,29l0.4,0l2.8-20.2L47.9,8l6.9,19.2l0.4,0L57.5,7L65,6.3l-4.9,29.2
			l-8.8,0.9l-5.8-15.7l-0.4,0l-2.5,16.5L33.7,38.2z"/>
		<path class="st0" d="M68.7,34.8L67.5,6.3l7-0.3l0.5,11.1l11.9-0.5L86.4,5.5l7-0.3l1.2,28.5l-7,0.3l-0.5-11.1l-11.9,0.5l0.5,11.1
			L68.7,34.8z"/>
		<path class="st0" d="M98.3,33.7l0.1-28.6L120,5.2l0,6.3l-14.7,0l0,4.8l12.9,0l0,6.3l-12.9,0l0,4.8l14.9,0l0,6.3L98.3,33.7z"/>
		<path class="st0" d="M123.1,33.8l1.3-28.5l21.7,1l-0.3,6.3L131,11.9l-0.2,4.8l12.9,0.6l-0.3,6.3L130.5,23l-0.2,4.8l14.9,0.7
			l-0.3,6.3L123.1,33.8z"/>
		<path class="st0" d="M147.8,35l2.4-28.5l6.9,0.6l-1.9,22.2l13.7,1.2l-0.5,6.3L147.8,35z"/>
	</g>
</g>
</svg>
