<?xml version="1.0" encoding="utf-8"?>
<!-- Generator: Adobe Illustrator 25.0.1, SVG Export Plug-In . SVG Version: 6.00 Build 0)  -->
<!DOCTYPE svg PUBLIC "-//W3C//DTD SVG 1.1//EN" "http://www.w3.org/Graphics/SVG/1.1/DTD/svg11.dtd" [
	<!ENTITY ns_extend "http://ns.adobe.com/Extensibility/1.0/">
	<!ENTITY ns_ai "http://ns.adobe.com/AdobeIllustrator/10.0/">
	<!ENTITY ns_graphs "http://ns.adobe.com/Graphs/1.0/">
	<!ENTITY ns_vars "http://ns.adobe.com/Variables/1.0/">
	<!ENTITY ns_imrep "http://ns.adobe.com/ImageReplacement/1.0/">
	<!ENTITY ns_sfw "http://ns.adobe.com/SaveForWeb/1.0/">
	<!ENTITY ns_custom "http://ns.adobe.com/GenericCustomNamespace/1.0/">
	<!ENTITY ns_adobe_xpath "http://ns.adobe.com/XPath/1.0/">
]>
<svg version="1.1" id="Layer_1" xmlns:x="&ns_extend;" xmlns:i="&ns_ai;" xmlns:graph="&ns_graphs;"
	 xmlns="http://www.w3.org/2000/svg" xmlns:xlink="http://www.w3.org/1999/xlink" x="0px" y="0px" viewBox="0 0 227.9 85.9"
	 style="enable-background:new 0 0 227.9 85.9;" xml:space="preserve">
<style type="text/css">
	.st0{fill:#F8981D;}
</style>
<metadata>
	<sfw  xmlns="&ns_sfw;">
		<slices></slices>
		<sliceSourceBounds  bottomLeftOrigin="true" height="16383" width="16383" x="-8141" y="-8242"></sliceSourceBounds>
	</sfw>
</metadata>
<g>
	<g>
		<path class="st0" d="M42.5,33.6c0-0.3-0.1-0.6,0-0.9l6.9-0.8c0,0.2,0,0.4,0,0.6c0.3,2.5,2.6,3.1,5.5,2.8c3.1-0.3,4.6-1.3,4.4-3
			c-0.5-4.7-17,0.5-18.2-10.2c-0.7-5.8,4-9.6,10.6-10.4c8.2-1,12.5,2,13.2,7.5c0,0.3,0.1,0.6,0.1,1L58.2,21c0-0.2,0-0.4-0.1-0.7
			c-0.3-1.9-1.6-3.2-5.3-2.7c-2.9,0.4-4.7,1.1-4.4,3c0.5,4.7,17-0.4,18.2,10.2c0.6,5.5-3.7,9.5-10.6,10.3
			C45.8,42.2,42.9,37.5,42.5,33.6z"/>
		<path class="st0" d="M70.3,38.9l-1.8-28.4l6.9-0.4l0.7,11.1l12-0.8L87.4,9.3l6.9-0.4l1.9,28.5l-7,0.4l-0.7-11.1l-12,0.8l0.8,11.2
			L70.3,38.9z"/>
		<path class="st0" d="M98.9,22.8c-0.1-9.5,5.4-14.9,14.6-15c9.1-0.1,14.7,5.2,14.9,14.7c0.1,9.5-5.4,14.9-14.5,15
			C104.6,37.5,99,32.3,98.9,22.8z M120.9,22.6c-0.1-5.3-3-8.4-7.5-8.4c-4.5,0.1-7.3,3.3-7.2,8.6s3,8.4,7.6,8.4
			C118.2,31.1,121,27.9,120.9,22.6z"/>
		<path class="st0" d="M131.1,22.5c0.4-9.6,6.4-14.6,15-14.2c6.3,0.3,12.8,4.2,13,12.4l-7.4-0.3c-0.3-3.8-3.2-5.6-5.8-5.7
			c-4.4-0.1-7.2,2.6-7.4,8.2c-0.3,5.6,2.4,8.6,6.8,8.8c2.6,0.1,5.7-1.5,6.3-5.2l7.4,0.3c-0.7,8.1-7.6,11.6-13.9,11.3
			C136.3,37.6,130.8,32.2,131.1,22.5z"/>
		<path class="st0" d="M160.9,38.1l2.5-28.4l6.9,0.6l-1.1,12.4l0.4,0.1L181,11.3l8.1,0.7l-12.5,12.8l10.8,15.7l-9-0.8l-9.1-13.2
			l-0.4-0.1l-1,12.3L160.9,38.1z"/>
	</g>
</g>
<g>
	<g>
		<path class="st0" d="M4.5,80.2l5.6-29.8L19,49l14.8,26.6l-7.9,1.3l-2.7-5.2l-10.4,1.7L12,79.2L4.5,80.2z M13.8,66.6l6.4-1
			l-4.5-8.9l-0.4,0L13.8,66.6z"/>
		<path class="st0" d="M34.7,75.4l-3.2-28.3L46,45.5c6.4-0.7,9.2,2.3,9.6,6.3c0.4,3-0.6,5.6-3.6,7.1l0,0.4c3.8,0.6,5.6,3.1,6,6.2
			c0.5,4-1.6,7.6-7.9,8.2L34.7,75.4z M40.7,68.6l7.7-0.9c2-0.2,2.6-1.7,2.4-3c-0.2-1.4-1.2-2.3-3.1-2.1l-7.6,0.8L40.7,68.6z
			 M39.4,57.5l7.4-0.8c2-0.2,2.5-1.6,2.3-3s-1-2.3-3-2l-7.4,0.8L39.4,57.5z"/>
		<path class="st0" d="M60.4,64.2c0-0.3-0.1-0.6,0-1l6.9-0.5c-0.1,0.2,0,0.4,0,0.6c0.2,2.5,2.4,3.2,5.3,3.1c3.2-0.2,4.7-1,4.6-2.8
			c-0.3-4.7-17.1-0.2-17.7-11c-0.4-5.8,4.5-9.3,11.1-9.7c8.3-0.5,12.4,2.6,12.8,8.1c0,0.3,0.1,0.7,0,1l-6.9,0.5c0.1-0.2,0-0.4,0-0.7
			c-0.1-1.9-1.5-3.2-5.1-3c-2.9,0.2-4.7,0.9-4.6,2.8c0.3,4.7,17,0.3,17.7,11.1c0.4,5.5-4.1,9.3-11.1,9.7
			C63.3,73,60.7,68.1,60.4,64.2z"/>
		<path class="st0" d="M86.9,56.5c-0.2-9.6,5.3-15,14.4-15.1c9.2-0.1,14.8,5,15,14.5c0.2,9.6-5.3,15-14.4,15.1
			C92.8,71.2,87.1,66,86.9,56.5z M109,56.1c-0.1-5.3-3.1-8.4-7.5-8.3c-4.5,0.1-7.3,3.3-7.2,8.7c0.1,5.3,3.1,8.4,7.6,8.3
			C106.3,64.6,109.1,61.4,109,56.1z"/>
		<path class="st0" d="M119.5,70.3l0.9-28.5l12.8,0.4c8.4,0.3,10.6,4.4,10.6,8.7c-0.1,4-1.8,6.3-5,7.4l0,0.4c2.7,1.1,4,3,4.7,7.2
			l0.9,5.3l-7.1-0.2l-0.8-5.2c-0.5-3.3-1.8-4.3-4.7-4.4l-5-0.2l-0.3,9.4L119.5,70.3z M127,54.7l4.8,0.1c2.8,0,4.6-0.7,4.5-3.2
			c0.1-2.5-1.5-3.1-4.3-3.3l-4.8-0.1L127,54.7z"/>
		<path class="st0" d="M147.1,71.3l2.2-28.5l14.6,1.1c6.4,0.5,8.6,4,8.2,7.9c-0.2,3-1.7,5.5-4.9,6.4l0,0.4c3.6,1.4,4.9,4.1,4.7,7.3
			c-0.3,4.1-2.9,7.1-9.4,6.6L147.1,71.3z M154.3,65.6l7.6,0.6c1.9,0.2,2.9-1.2,2.9-2.5c0.1-1.4-0.7-2.5-2.7-2.7l-7.5-0.6L154.3,65.6
			z M155.1,54.4l7.3,0.6c1.9,0.2,2.8-1.2,2.9-2.6c0.1-1.3-0.5-2.5-2.4-2.6l-7.3-0.6L155.1,54.4z"/>
		<path class="st0" d="M174.2,73.4l3.4-28.3l21.5,2.7l-0.7,6.2l-14.6-1.8l-0.6,4.8l12.8,1.5l-0.7,6.2l-12.8-1.5l-0.6,4.8l14.8,1.8
			l-0.7,6.2L174.2,73.4z"/>
		<path class="st0" d="M198.8,76.5l4.7-28.2l12.7,2.1c8.3,1.4,10,5.8,9.3,9.9c-0.7,4-2.6,6-5.9,6.6l0,0.4c2.5,1.5,3.6,3.5,3.7,7.8
			l0.1,5.4l-7-1.1l-0.1-5.3c0-3.3-1.3-4.5-4-4.9l-4.8-0.8l-1.6,9.3L198.8,76.5z M208.3,62.1l4.7,0.8c2.8,0.5,4.5-0.1,5-2.5
			c0.4-2.6-1.1-3.4-3.9-3.8l-4.7-0.8L208.3,62.1z"/>
	</g>
</g>
</svg>
