<?xml version="1.0" encoding="utf-8"?>
<!-- Generator: Adobe Illustrator 25.0.1, SVG Export Plug-In . SVG Version: 6.00 Build 0)  -->
<!DOCTYPE svg PUBLIC "-//W3C//DTD SVG 1.1//EN" "http://www.w3.org/Graphics/SVG/1.1/DTD/svg11.dtd" [
	<!ENTITY ns_extend "http://ns.adobe.com/Extensibility/1.0/">
	<!ENTITY ns_ai "http://ns.adobe.com/AdobeIllustrator/10.0/">
	<!ENTITY ns_graphs "http://ns.adobe.com/Graphs/1.0/">
	<!ENTITY ns_vars "http://ns.adobe.com/Variables/1.0/">
	<!ENTITY ns_imrep "http://ns.adobe.com/ImageReplacement/1.0/">
	<!ENTITY ns_sfw "http://ns.adobe.com/SaveForWeb/1.0/">
	<!ENTITY ns_custom "http://ns.adobe.com/GenericCustomNamespace/1.0/">
	<!ENTITY ns_adobe_xpath "http://ns.adobe.com/XPath/1.0/">
]>
<svg version="1.1" id="Layer_1" xmlns:x="&ns_extend;" xmlns:i="&ns_ai;" xmlns:graph="&ns_graphs;"
	 xmlns="http://www.w3.org/2000/svg" xmlns:xlink="http://www.w3.org/1999/xlink" x="0px" y="0px" viewBox="0 0 191.9 43.9"
	 style="enable-background:new 0 0 191.9 43.9;" xml:space="preserve">
<style type="text/css">
	.st0{fill:#F8981D;}
</style>
<metadata>
	<sfw  xmlns="&ns_sfw;">
		<slices></slices>
		<sliceSourceBounds  bottomLeftOrigin="true" height="16383" width="16383" x="-8141" y="-8242"></sliceSourceBounds>
	</sfw>
</metadata>
<g>
	<g>
		<path class="st0" d="M6.7,39.2L3.1,10.9l14.6-1.8c6.4-0.8,9.1,2.2,9.6,6.2c0.4,2.9-0.6,5.6-3.6,7.2l0.1,0.4c3.8,0.6,5.7,3,6,6.1
			c0.5,4-1.5,7.6-7.8,8.4L6.7,39.2z M11.2,21.2l7.3-0.9c1.9-0.2,2.5-1.7,2.3-3.1c-0.2-1.4-1-2.3-3-2.1l-7.3,0.9L11.2,21.2z
			 M12.6,32.4l7.6-0.9c1.9-0.2,2.6-1.7,2.4-3c-0.2-1.4-1.2-2.3-3.1-2.1l-7.5,0.9L12.6,32.4z"/>
		<path class="st0" d="M30.8,36.2L39,6.9l8.9-0.7l12.5,27.7l-7.9,0.6l-2.2-5.4l-10.5,0.8l-1.3,5.7L30.8,36.2z M41.2,23.4l6.5-0.5
			l-3.8-9.2l-0.4,0L41.2,23.4z"/>
		<path class="st0" d="M65.1,33.9l-0.8-22.2L55.4,12l-0.2-6.3l24.5-0.9L80,11l-8.8,0.3L72,33.6L65.1,33.9z"/>
		<path class="st0" d="M90.9,33.3L91.1,11L82.3,11l0-6.3l24.6,0.2l0,6.3L98,11.1l-0.1,22.2L90.9,33.3z"/>
		<path class="st0" d="M108.6,33.5L110,4.9l21.7,1l-0.3,6.3l-14.7-0.7l-0.2,4.8l12.9,0.6l-0.3,6.3l-12.9-0.6l-0.2,4.8l14.9,0.7
			l-0.3,6.3L108.6,33.5z"/>
		<path class="st0" d="M133.4,34.7L136,6.3l12.7,1.2c8.4,0.8,10.4,5,10,9.2c-0.4,4-2.2,6.1-5.5,7l0,0.4c2.6,1.3,3.8,3.2,4.2,7.5
			L158,37l-7-0.7l-0.4-5.3c-0.3-3.3-1.6-4.4-4.4-4.6l-4.9-0.5l-0.9,9.4L133.4,34.7z M141.8,19.7l4.8,0.4c2.8,0.3,4.5-0.4,4.8-2.9
			c0.2-2.5-1.3-3.3-4.2-3.5l-4.8-0.4L141.8,19.7z"/>
		<path class="st0" d="M167.5,38.3l1.4-10.5l-8.1-19.2l8.2,1.1l4.4,11.2l0.4,0.1l7.4-9.6l7.7,1.1l-13,16.4l-1.4,10.5L167.5,38.3z"/>
	</g>
</g>
</svg>
